<svg width="35" height="35" viewBox="0 0 35 35" fill="none" xmlns="http://www.w3.org/2000/svg">
<path d="M2.9165 17.5C2.9165 10.6253 2.9165 7.18798 5.05219 5.05231C7.18786 2.91663 10.6252 2.91663 17.4998 2.91663C24.3744 2.91663 27.8119 2.91663 29.9474 5.05231C32.0832 7.18798 32.0832 10.6253 32.0832 17.5C32.0832 24.3745 32.0832 27.812 29.9474 29.9476C27.8119 32.0833 24.3744 32.0833 17.4998 32.0833C10.6252 32.0833 7.18786 32.0833 5.05219 29.9476C2.9165 27.812 2.9165 24.3745 2.9165 17.5Z" stroke="#FFF000" stroke-width="2.1875"/>
<path d="M21.1457 13.8542L13.854 21.1458M13.854 13.8541L21.1457 21.1458" stroke="#FFF000" stroke-width="2.1875" stroke-linecap="round"/>
</svg>
