<svg width="36" height="36" viewBox="0 0 36 36" fill="none" xmlns="http://www.w3.org/2000/svg">
<g filter="url(#filter0_d_148_2570)">
<circle cx="18" cy="16" r="14.5" stroke="#DDDDDD" shape-rendering="crispEdges"/>
</g>
<path d="M17.7656 8.70605C19.8444 8.70197 20.0985 8.71131 20.9033 8.74609C21.5752 8.77515 22.044 8.86991 22.4395 9.00488L22.6055 9.06543C23.0498 9.23653 23.4182 9.46114 23.792 9.83398C24.1659 10.207 24.3919 10.5739 24.5654 11.0176V11.0186C24.7342 11.4487 24.8551 11.9494 24.8916 12.7197C24.9298 13.5256 24.9393 13.7779 24.9434 15.8564C24.9463 17.4157 24.9419 17.9472 24.9248 18.4561L24.9033 18.9941C24.87 19.762 24.7507 20.2649 24.584 20.6953V20.6963C24.4125 21.1409 24.1871 21.5084 23.8145 21.8828C23.4423 22.2566 23.0751 22.4825 22.6309 22.6562C22.2 22.8246 21.7004 22.9459 20.9307 22.9824C20.1249 23.0206 19.8712 23.0302 17.793 23.0342C15.7151 23.0382 15.4613 23.0294 14.6572 22.9941C13.8887 22.9605 13.3849 22.8413 12.9541 22.6748L12.79 22.6074C12.4165 22.4442 12.0946 22.2321 11.7676 21.9062C11.3934 21.5335 11.1664 21.1663 10.9932 20.7227V20.7217L10.9326 20.5566C10.796 20.1623 10.6992 19.6939 10.667 19.0215V19.0205C10.628 18.2147 10.6192 17.9626 10.6152 15.8838C10.6112 13.8046 10.6188 13.5513 10.6543 12.7471C10.6882 11.9781 10.807 11.4748 10.9736 11.0439H10.9746C11.1461 10.5999 11.3697 10.2314 11.7422 9.85742L11.7432 9.8584C12.1159 9.48431 12.4834 9.25684 12.9268 9.08398H12.9277C13.3573 8.91527 13.8598 8.79406 14.6279 8.75781H14.6289C15.4346 8.71853 15.6861 8.71001 17.7656 8.70605ZM17.7656 9.08887C16.2294 9.09222 15.7041 9.09743 15.1914 9.11621L14.6465 9.13965C13.8444 9.17785 13.3853 9.31461 13.0654 9.43945C12.6448 9.60392 12.3304 9.80803 12.0127 10.1279C11.7363 10.4062 11.5453 10.6812 11.3926 11.0293L11.3291 11.1836C11.2221 11.4625 11.1036 11.8494 11.0527 12.4795L11.0352 12.7646C10.9993 13.5839 10.9916 13.8354 10.9961 15.8838C10.9995 17.4199 11.0047 17.9457 11.0234 18.458L11.0469 19.0029C11.0844 19.8063 11.2229 20.2651 11.3467 20.584L11.3477 20.585C11.5118 21.0044 11.7152 21.3198 12.0361 21.6377C12.354 21.9525 12.6674 22.1581 13.0908 22.3213H13.0918C13.4113 22.444 13.8705 22.5793 14.6729 22.6143C15.4923 22.6497 15.7427 22.6588 17.792 22.6543C19.329 22.6509 19.8545 22.6457 20.3672 22.627L20.9121 22.6025C21.7135 22.5643 22.1728 22.4274 22.4922 22.3027C22.9133 22.1382 23.2281 21.934 23.5459 21.6143L23.5449 21.6133C23.8216 21.3349 24.0134 21.0606 24.166 20.7129L24.2295 20.5596C24.3372 20.2795 24.4538 19.8925 24.5049 19.2627L24.5234 18.9775C24.5594 18.1582 24.5662 17.906 24.5625 15.8584C24.5589 13.8101 24.5497 13.5581 24.5107 12.7383C24.4823 12.1367 24.3988 11.7282 24.3057 11.4268L24.2109 11.1582C24.0462 10.7361 23.8418 10.4231 23.5225 10.1055C23.2038 9.78838 22.8897 9.58476 22.4668 9.42188H22.4678C22.1476 9.29805 21.6879 9.1628 20.8867 9.12793C20.0664 9.09177 19.814 9.08439 17.7656 9.08887ZM17.7725 12.4346C19.67 12.4308 21.2112 13.9657 21.2148 15.8633C21.2184 17.7608 19.6825 19.302 17.7852 19.3057C15.8882 19.309 14.3476 17.7743 14.3438 15.877C14.3402 13.9795 15.8751 12.4384 17.7725 12.4346ZM18.3691 12.8721C17.7764 12.7554 17.1622 12.8175 16.6045 13.0498C16.0467 13.2821 15.57 13.6747 15.2354 14.1777C14.9007 14.6807 14.7234 15.2718 14.7246 15.876C14.7254 16.2772 14.8047 16.6746 14.959 17.0449C15.1132 17.4151 15.339 17.7512 15.623 18.0342C15.9073 18.3173 16.2452 18.5416 16.6162 18.6943C16.9871 18.847 17.3841 18.9256 17.7852 18.9248C18.3894 18.9236 18.9797 18.7429 19.4814 18.4062C19.9831 18.0696 20.3734 17.5918 20.6035 17.0332C20.8336 16.4745 20.8935 15.8599 20.7744 15.2676C20.6553 14.6754 20.3635 14.1314 19.9355 13.7051C19.5075 13.2787 18.962 12.9888 18.3691 12.8721ZM21.8623 11.3525C21.9452 11.3525 22.0267 11.376 22.0957 11.4219C22.1647 11.4678 22.2181 11.5338 22.25 11.6104C22.2819 11.6869 22.2904 11.7712 22.2744 11.8525C22.2584 11.934 22.2188 12.0095 22.1602 12.0684C22.1016 12.1271 22.0267 12.1673 21.9453 12.1836C21.8641 12.1999 21.7798 12.1917 21.7031 12.1602C21.6264 12.1285 21.5599 12.0748 21.5137 12.0059C21.4675 11.9369 21.4435 11.8555 21.4434 11.7725C21.4432 11.6612 21.4869 11.5544 21.5654 11.4756C21.644 11.3968 21.751 11.3528 21.8623 11.3525Z" fill="#EAEAEA" stroke="#EAEAEA"/>
<defs>
<filter id="filter0_d_148_2570" x="0" y="0" width="36" height="36" filterUnits="userSpaceOnUse" color-interpolation-filters="sRGB">
<feFlood flood-opacity="0" result="BackgroundImageFix"/>
<feColorMatrix in="SourceAlpha" type="matrix" values="0 0 0 0 0 0 0 0 0 0 0 0 0 0 0 0 0 0 127 0" result="hardAlpha"/>
<feMorphology radius="1" operator="dilate" in="SourceAlpha" result="effect1_dropShadow_148_2570"/>
<feOffset dy="2"/>
<feGaussianBlur stdDeviation="1"/>
<feComposite in2="hardAlpha" operator="out"/>
<feColorMatrix type="matrix" values="0 0 0 0 0 0 0 0 0 0 0 0 0 0 0 0 0 0 0.03 0"/>
<feBlend mode="normal" in2="BackgroundImageFix" result="effect1_dropShadow_148_2570"/>
<feBlend mode="normal" in="SourceGraphic" in2="effect1_dropShadow_148_2570" result="shape"/>
</filter>
</defs>
</svg>
