<svg width="33" height="34" viewBox="0 0 33 34" fill="none" xmlns="http://www.w3.org/2000/svg">
<rect width="32" height="32" fill="#212121"/>
<g filter="url(#filter0_d_148_2725)">
<circle cx="16.3549" cy="16.3556" r="12.9778" stroke="#FFF000" stroke-width="1.06667" shape-rendering="crispEdges"/>
</g>
<path d="M16.5273 10.3862C18.3129 10.3827 18.5314 10.3905 19.2227 10.4204C19.7175 10.4418 20.084 10.5046 20.3926 10.5952L20.6846 10.6948C21.0662 10.8418 21.383 11.0347 21.7041 11.355C22.0252 11.6754 22.2192 11.9905 22.3682 12.3716V12.3726C22.5131 12.742 22.6171 13.1719 22.6484 13.8335C22.6813 14.5257 22.6889 14.7424 22.6924 16.5278C22.6958 18.3133 22.6885 18.5301 22.6582 19.2231C22.6296 19.8824 22.5279 20.3144 22.3848 20.6841L22.3838 20.6851C22.2365 21.0669 22.0437 21.383 21.7236 21.7046C21.4041 22.0256 21.0885 22.2194 20.707 22.3687C20.3369 22.5133 19.9074 22.6176 19.2461 22.6489C18.5539 22.6818 18.336 22.6895 16.5508 22.6929C14.7661 22.6963 14.548 22.6899 13.8574 22.6597C13.3624 22.638 12.9951 22.5744 12.6865 22.4839L12.3945 22.3853C12.0595 22.256 11.776 22.0919 11.4951 21.8384L11.375 21.7241C11.0536 21.4039 10.8588 21.0887 10.71 20.7075V20.7065C10.5651 20.3377 10.4613 19.9065 10.4297 19.2466V19.2456C10.3962 18.5535 10.3891 18.3369 10.3857 16.5513C10.3823 14.7653 10.3884 14.5478 10.4189 13.8569C10.4408 13.3615 10.5043 12.9947 10.5947 12.686L10.6934 12.394C10.8407 12.0125 11.0344 11.6968 11.3545 11.3755C11.6747 11.0542 11.9902 10.8589 12.3711 10.7104H12.3721C12.741 10.5655 13.1723 10.4623 13.832 10.4312L13.833 10.4302C14.525 10.3964 14.7411 10.3896 16.5273 10.3862ZM16.5273 10.7144C14.7684 10.7182 14.552 10.7249 13.8477 10.7583C13.3312 10.7829 12.9806 10.8552 12.7217 10.9351L12.4902 11.0161C12.129 11.1573 11.8588 11.3323 11.5859 11.6069C11.3823 11.8119 11.2326 12.0152 11.1113 12.2573L10.998 12.5142C10.893 12.7879 10.7756 13.1825 10.7461 13.8716C10.7153 14.5755 10.709 14.7917 10.7129 16.5513C10.7167 18.3108 10.7237 18.5273 10.7568 19.231C10.7891 19.9207 10.9074 20.3145 11.0137 20.5884L11.0146 20.5894C11.1556 20.9496 11.3299 21.2207 11.6055 21.4937C11.8784 21.764 12.1481 21.9404 12.5117 22.0806H12.5127C12.7871 22.186 13.181 22.3025 13.8701 22.3325C14.5741 22.363 14.7896 22.3705 16.5498 22.3667C18.3097 22.3629 18.5263 22.3559 19.2305 22.3228C19.7467 22.2981 20.0976 22.2259 20.3564 22.146L20.5879 22.0649C20.9494 21.9236 21.2193 21.7486 21.4922 21.4741C21.7639 21.2009 21.9391 20.931 22.0791 20.5679L22.0801 20.5669C22.1857 20.292 22.302 19.8974 22.332 19.2085C22.3629 18.5049 22.3684 18.2877 22.3652 16.5288C22.3621 14.7701 22.3548 14.5539 22.3213 13.8501C22.2888 13.1607 22.1711 12.7662 22.0635 12.4917C21.922 12.1294 21.7468 11.8601 21.4727 11.5874C21.2674 11.3831 21.0642 11.2338 20.8223 11.1128L20.5664 11.0005C20.3257 10.9074 19.993 10.8069 19.4521 10.7632L19.208 10.7485C18.5034 10.7175 18.2868 10.7105 16.5273 10.7144ZM16.5332 13.5884C18.1631 13.5852 19.4871 14.9038 19.4902 16.5337C19.4933 18.1635 18.1745 19.4874 16.5449 19.4907C14.9153 19.4938 13.5912 18.1754 13.5879 16.5454C13.5848 14.9156 14.9034 13.5917 16.5332 13.5884ZM17.0459 13.9644C16.5368 13.8642 16.0093 13.9173 15.5303 14.1167C15.0513 14.3162 14.642 14.6535 14.3545 15.0854C14.067 15.5175 13.9141 16.0255 13.915 16.5444C13.9157 16.889 13.9838 17.2303 14.1162 17.5483C14.2487 17.8665 14.4433 18.1557 14.6875 18.3989C14.9316 18.642 15.2215 18.8351 15.54 18.9663C15.8584 19.0974 16.1996 19.1642 16.5439 19.1636C17.0629 19.1625 17.57 19.0074 18.001 18.7183C18.4319 18.4291 18.7682 18.0185 18.9658 17.5386C19.1634 17.0588 19.2136 16.5307 19.1113 16.022C19.009 15.5133 18.7582 15.0463 18.3906 14.6802C18.0229 14.314 17.5551 14.0646 17.0459 13.9644ZM20.0459 12.6587C20.1172 12.6585 20.1867 12.6798 20.2461 12.7192C20.3054 12.7587 20.3525 12.8146 20.3799 12.8804C20.4073 12.9462 20.4142 13.0194 20.4004 13.0894C20.3866 13.1592 20.352 13.2235 20.3018 13.2739C20.2515 13.3243 20.187 13.3585 20.1172 13.3726C20.0474 13.3865 19.975 13.3801 19.9092 13.353C19.8432 13.3258 19.7868 13.2794 19.7471 13.2202C19.7074 13.161 19.6867 13.0913 19.6865 13.02C19.6864 12.9245 19.7237 12.8328 19.791 12.7651C19.8585 12.6974 19.9503 12.6589 20.0459 12.6587Z" fill="#FFF000" stroke="#FFF000" stroke-width="0.858969"/>
<defs>
<filter id="filter0_d_148_2725" x="0.425972" y="2.03853" width="31.858" height="31.8578" filterUnits="userSpaceOnUse" color-interpolation-filters="sRGB">
<feFlood flood-opacity="0" result="BackgroundImageFix"/>
<feColorMatrix in="SourceAlpha" type="matrix" values="0 0 0 0 0 0 0 0 0 0 0 0 0 0 0 0 0 0 127 0" result="hardAlpha"/>
<feMorphology radius="0.805926" operator="dilate" in="SourceAlpha" result="effect1_dropShadow_148_2725"/>
<feOffset dy="1.61185"/>
<feGaussianBlur stdDeviation="0.805926"/>
<feComposite in2="hardAlpha" operator="out"/>
<feColorMatrix type="matrix" values="0 0 0 0 0 0 0 0 0 0 0 0 0 0 0 0 0 0 0.03 0"/>
<feBlend mode="normal" in2="BackgroundImageFix" result="effect1_dropShadow_148_2725"/>
<feBlend mode="normal" in="SourceGraphic" in2="effect1_dropShadow_148_2725" result="shape"/>
</filter>
</defs>
</svg>
