<svg width="679" height="182" viewBox="0 0 679 182" fill="none" xmlns="http://www.w3.org/2000/svg">
<path opacity="0.73" fill-rule="evenodd" clip-rule="evenodd" d="M674.425 83.9943C668.211 83.9161 661.996 83.9787 655.781 83.9911C648.748 83.9585 641.714 83.925 634.681 83.8918C629.956 83.7178 625.231 83.5423 620.505 83.3828C620.411 83.3793 620.313 83.5648 620.216 83.6627C619.791 83.652 619.366 83.6419 618.94 83.6315C618.794 83.3874 618.652 82.9343 618.501 82.9292C611.481 82.6937 604.46 82.5183 597.44 82.2875C593.482 82.1573 589.524 81.9998 585.571 81.7282C584.572 81.6596 583.122 80.417 582.684 80.8882C579.832 83.955 577.608 81.7458 575.448 79.9785C574.434 80.9419 573.519 81.8105 572.693 82.5939C570.785 81.4002 569.059 80.3203 567.397 79.2804C566.605 80.5538 565.879 81.7227 564.893 83.3106C562.101 77.4631 559.255 80.7852 556.346 82.8556C555.778 81.5684 555.32 80.5302 554.786 79.3179C552.603 80.1784 550.507 81.0048 548.75 81.6979C547.928 80.6837 547.303 79.9124 546.678 79.1408C545.562 82.3302 542.938 77.4391 541.712 80.5183C541.694 80.5639 540.293 79.3938 539.565 79.4414C538.765 79.4934 537.998 80.301 537.077 80.8646C536.813 79.6272 536.57 78.4846 536.364 77.5185C534.413 76.9798 533.063 77.2432 532.853 79.8743C531.241 78.2832 531.184 81.811 529.606 81.1384C529.38 80.4271 529.094 79.472 528.79 78.516C528.649 78.5738 528.466 78.6318 528.385 78.6898C528.385 80.727 528.385 82.7636 528.385 84.8005C528.146 84.825 527.942 84.8192 527.729 84.7837C527.61 81.8794 527.482 78.9749 527.362 76.0712C525.144 78.727 523.186 80.3224 520.366 78.3692C520.025 77.1316 519.625 75.6865 519.279 74.4281C517.782 76.3851 516.369 78.2313 515.154 79.8195C513.972 78.1031 512.758 76.3609 511.602 74.6824C510.305 76.4532 509.423 77.7254 507.903 79.7139C507.903 80.6592 507.903 82.7012 507.903 84.7436C507.743 84.7696 507.564 84.7745 507.387 84.7589C507.108 81.3234 506.835 77.8882 506.474 73.4361C505.634 75.8311 505.189 77.1105 504.637 78.6854C504.008 76.4102 503.518 74.6342 503.027 72.8584C502.776 72.9294 502.524 72.9997 502.273 73.0707C502.107 74.4835 501.943 75.8954 501.69 78.0685C501.31 76.5048 501.144 75.8154 500.961 75.0603C500.444 75.5921 500.047 75.9996 499.223 76.8465C499.067 73.4243 498.945 70.7309 498.823 68.0373C498.658 68.0335 498.493 68.0306 498.328 68.0271C497.918 71.1619 497.508 74.2966 496.944 78.6113C496.105 75.5924 495.549 73.6485 495.009 71.7039C494.832 71.7273 494.702 71.7515 494.462 71.7748C494.462 74.1958 494.462 76.6165 494.462 79.0371C494.302 79.0475 494.17 79.0577 494.016 79.0675C493.74 77.1051 493.472 75.1423 493.195 73.1801C492.999 73.2327 492.807 73.2846 492.612 73.3374C492.232 75.889 491.854 78.4407 491.475 80.993C491.159 75.4288 492.149 69.7232 490.282 63.9002C489.947 68.6045 489.641 72.9051 489.335 77.206C489.081 77.1884 488.828 77.1711 488.574 77.1532C488.164 75.3651 487.743 73.5766 487.332 71.7879C487.099 71.8216 486.86 71.8554 486.62 71.8885C486.62 74.3476 486.62 76.8073 486.62 79.266C486.3 79.2588 485.984 79.2513 485.661 79.244C485.536 76.3709 485.417 73.4978 485.284 70.4291C484.779 70.9915 484.491 71.3164 484.138 71.7097C483.72 67.2279 483.321 62.9538 482.833 57.7238C482.435 63.0519 482.113 67.3857 481.79 71.7203C481.49 73.8934 481.191 76.0671 480.892 78.2404C480.694 78.2113 480.496 78.1825 480.299 78.1533C480.198 76.0322 480.1 73.9116 479.974 71.252C479.19 74.2324 478.62 76.5363 477.98 78.8398C477.98 76.1753 477.98 73.5108 477.98 70.4213C475.499 71.4609 475.647 69.4384 475.63 67.7325C475.591 63.8209 475.617 59.909 475.617 55.9965C474.478 62.4956 473.915 68.9797 473.387 75.4678C473.268 76.9238 473.268 78.3949 473.213 79.859C473.119 79.8466 473.024 79.8348 472.93 79.8223C472.617 77.0788 472.303 74.3355 471.991 71.5922C471.737 71.6338 471.482 71.6759 471.228 71.7177C471.146 73.5353 471.063 75.3523 470.981 77.1699C470.817 77.1745 470.653 77.1795 470.49 77.1841C470.387 74.2305 470.283 71.2763 470.18 68.3226C469.836 68.3379 469.491 68.3532 469.147 68.3685C468.967 70.9412 468.792 73.514 468.612 76.0864C468.266 76.0668 467.898 76.0463 467.578 76.0264C467.578 68.3974 467.578 60.7674 467.578 53.1384C467.258 53.145 467.032 53.1517 466.761 53.1583C466.224 62.7299 465.703 72.302 465.166 81.8742C464.898 81.8566 464.618 81.8393 464.378 81.8217C464.378 80.591 464.378 79.3607 464.378 78.1303C464.378 76.8803 464.378 75.6305 464.378 74.4229C461.258 73.6703 459.883 71.8129 459.835 68.3007C459.778 64.1342 459.812 59.965 459.812 55.7971C457.985 61.9199 458.79 68.84 455.183 74.1618C454.857 72.3698 454.528 70.5774 454.199 68.7661C453.736 69.7605 453.253 70.7661 452.784 71.7714C452.573 71.7293 452.376 71.6871 452.136 71.645C452.136 66.0673 452.136 60.4893 452.136 54.5953C451.096 59.9765 450.062 64.8961 448.848 70.8893C448.556 68.7327 448.423 67.6988 448.198 66.0347C447.037 68.5826 446.111 70.6221 444.848 73.3937C444.486 67.3314 445.014 62.1158 444.472 57.0281C444.125 57.0416 443.778 57.0552 443.431 57.0688C443.308 59.9246 443.178 62.7807 443.055 65.6367C442.83 65.6145 442.615 65.5923 442.375 65.5698C442.375 62.6194 442.375 59.6686 442.375 56.7176C442.295 56.7115 442.145 56.7055 442.027 56.6994C441.77 58.4856 441.517 60.2722 441.168 62.7007C440.377 61.3725 440.072 60.8566 439.916 60.5949C439.107 64.5357 438.292 68.5116 437.38 72.9475C433.091 64.0566 436.031 54.4146 434.474 45.6207C434.116 45.6458 433.734 45.6706 433.414 45.6957C433.414 51.702 433.414 57.7088 433.414 63.7156C433.174 63.7014 433.041 63.6873 432.86 63.6737C432.7 61.3832 432.534 59.093 432.374 56.8021C431.983 56.8272 431.589 56.8518 431.198 56.8766C430.682 65.2464 430.165 73.6167 429.648 81.9865C429.402 80.0238 428.962 78.0638 428.941 76.0976C428.858 68.3765 428.922 60.654 428.922 52.9312C428.654 52.9329 428.374 52.9341 428.134 52.9358C428.134 61.6299 428.134 70.3243 428.134 79.0184C427.893 79.021 427.686 79.0233 427.47 79.0253C427.099 68.4804 426.72 57.9364 426.349 47.3915C426.211 47.3964 426.069 47.4011 425.931 47.406C425.706 53.6275 425.478 59.849 425.252 66.0708C425.06 66.3807 424.866 66.6914 424.674 67.0019C424.609 66.8807 424.487 66.7598 424.486 66.6383C424.476 63.2842 424.478 59.9301 424.478 56.5762C424.155 56.5655 423.833 56.5548 423.51 56.5442C423.291 59.7543 423.098 62.9676 422.846 66.1741C422.408 71.7333 421.932 77.2882 421.473 82.8452C421.407 72.8373 421.341 62.8297 421.275 52.8221C420.852 52.8051 420.428 52.7889 420.004 52.7716C419.64 59.8677 419.996 67.0371 419.762 74.1465C419.488 74.1332 419.252 74.1202 418.932 74.1072C418.932 61.7609 418.932 49.4146 418.932 37.068C418.052 45.821 417.827 54.5707 417.548 63.3171C417.49 65.1352 417.092 66.9364 416.852 68.7456C416.852 66.5861 416.852 64.4266 416.852 62.2673C416.532 62.2471 416.186 62.2261 415.854 62.2059C415.421 65.313 414.986 68.4196 414.553 71.527C414.309 70.0323 413.965 68.5512 413.839 67.0418C413.447 62.3164 413.117 57.5798 412.775 52.8481C412.647 52.8561 412.531 52.8654 412.371 52.8738C412.371 63.5404 412.371 74.2076 412.371 84.8743C412.131 84.876 411.755 84.8783 411.438 84.8803C411.468 71.5668 411.539 58.2532 411.5 44.9394C411.495 43.2167 410.977 41.4958 410.694 39.774C410.045 47.4389 410.095 54.9522 410.013 62.4629C409.994 64.2707 409.546 66.0704 409.294 67.8739C409.01 65.3666 408.726 62.8589 408.442 60.3516C408.259 60.3863 408.076 60.4211 407.893 60.4555C407.603 63.8367 407.314 67.2186 407.025 70.5993C406.78 68.7953 406.389 66.999 406.324 65.1849C406.208 61.9889 406.291 58.7816 406.291 55.579C405.957 55.568 405.623 55.5567 405.289 55.5461C404.168 64.2687 405.186 73.1813 404.317 81.942C403.95 68.2104 403.584 54.4787 403.218 40.7467C402.517 49.0744 402.56 57.3818 402.485 65.6884C402.467 67.6872 402.057 69.6809 401.827 71.6771C401.556 70.0799 401.106 68.4928 401.051 66.8842C400.931 63.3982 401.014 59.9009 401.014 56.408C400.748 56.4086 400.483 56.4085 400.218 56.4091C400.218 58.6916 400.276 60.9786 400.153 63.2498C400.136 63.5745 399.24 63.8244 398.75 64.1089C398.501 62.3008 398.071 60.4982 398.036 58.6838C397.937 53.5799 398.002 48.4707 398.002 43.3636C397.818 43.3628 397.635 43.3622 397.453 43.3616C397.052 53.3499 396.651 63.3382 396.25 73.3267C396.072 73.3195 395.894 73.312 395.716 73.3048C395.716 71.759 395.716 70.2132 395.716 68.668C395.714 56.5673 395.731 44.467 395.69 32.3668C395.685 30.8877 395.364 29.4106 395.194 27.9327C394.868 27.9895 394.529 28.0466 394.209 28.1038C394.209 29.642 394.209 31.1806 394.209 32.7192C394.209 42.1483 394.251 51.5773 394.18 61.0055C394.168 62.6517 393.718 64.293 393.468 65.9366C393.275 58.9646 393.084 51.9925 392.891 45.0208C392.644 45.0245 392.397 45.028 392.149 45.0318C391.835 53.2622 391.521 61.4929 391.206 69.7227C390.951 67.9244 390.49 66.1276 390.479 64.3267C390.412 52.6896 390.449 41.0517 390.449 29.4141C390.449 27.4643 390.449 25.5146 390.449 23.5648C389.489 32.1591 389.115 40.7438 388.974 49.3343C388.833 57.9338 388.941 66.5397 388.941 75.1423C388.769 75.1374 388.596 75.1328 388.425 75.1276C388.044 59.1775 387.657 43.2271 387.277 27.2771C387.056 27.2765 386.848 27.2756 386.608 27.2747C386.608 40.7132 386.608 54.1515 386.608 67.59C386.448 67.5857 386.282 67.5816 386.116 67.5776C385.72 59.4906 385.328 51.4033 384.932 43.3166C384.865 43.312 384.801 43.3077 384.735 43.3033C384.388 49.2429 384.042 55.1827 383.696 61.1229C382.232 52.3789 383.996 43.4288 381.753 34.8374C381.499 35.4575 381.431 36.0687 381.415 36.6813C381.152 46.5536 380.912 56.4268 380.604 66.2961C380.567 67.4804 380.127 68.6458 379.887 69.8202C379.887 58.2039 379.887 46.5876 379.887 34.9716C379.647 34.9734 379.394 34.9751 379.145 34.9768C379.145 39.8309 379.297 44.6924 379.123 49.5369C378.947 54.4213 379.967 59.4753 377.647 64.1568C377.647 55.9172 377.647 47.6781 377.647 39.4382C377.487 39.437 377.353 39.435 377.212 39.4336C376.846 44.8151 376.483 50.1969 376.116 55.5784C374.797 49.3226 376.366 42.7799 373.726 36.7154C373.726 47.5814 373.726 58.4474 373.726 69.3135C373.246 69.3207 372.868 69.3277 372.445 69.3349C372.231 56.9568 372.47 44.5516 371.909 32.177C371.294 39.9924 371.101 47.8033 370.829 55.6098C370.766 57.4294 370.366 59.2321 370.126 61.0424C370.126 56.0949 370.126 51.1471 370.126 46.1998C369.805 46.2082 369.486 46.2166 369.165 46.2252C369.165 52.7295 369.165 59.2338 369.165 65.7294C365.805 57.9382 367.664 49.4769 366.451 41.398C365.041 54.2966 365.958 67.2896 365.095 80.2128C364.783 68.8276 364.456 57.443 364.144 46.0581C363.849 46.061 363.565 46.0642 363.245 46.0674C363.245 51.1693 363.245 56.2709 363.245 61.3728C362.605 59.8222 362.556 58.2879 362.556 56.7531C362.554 47.7941 362.607 38.8339 362.524 29.8758C362.504 27.7186 362.055 25.5677 361.801 23.4137C361.637 23.4468 361.475 23.48 361.311 23.5135C361.005 34.8727 360.699 46.2319 360.394 57.5916C360.209 57.5882 360.024 57.5852 359.839 57.5821C359.482 49.3554 359.126 41.1288 358.769 32.9024C358.527 32.9059 358.284 32.9091 358.044 32.9122C358.044 34.3873 358.044 35.863 358.044 37.3375C358.044 50.855 358.077 64.3721 358.017 77.8893C358.008 80.2139 357.607 82.5353 357.388 84.8579C357.301 85.1551 357.297 85.4543 357.378 85.7547C357.263 86.2195 357.154 86.6847 356.829 87.9933C356.621 86.309 356.524 85.5709 356.444 84.8328C356.444 70.7277 356.444 56.6224 356.444 42.5176C356.204 42.5156 355.884 42.5136 355.644 42.5116C355.644 49.3581 355.644 56.2045 355.644 63.0513C354.524 53.6165 355.96 44.0331 353.761 34.7246C353.505 43.9546 353.547 53.1796 353.476 62.4032C353.462 64.1989 353.024 65.9894 352.781 67.7827C352.776 63.5338 352.936 59.2739 352.734 55.04C352.303 46.0022 351.686 36.9786 351.145 27.9489C350.625 28.6818 350.519 29.4147 350.51 30.1502C350.285 48.6779 350.069 67.2056 349.852 85.7339C349.76 87.0794 349.668 88.4252 349.576 89.7702C349.435 89.769 349.307 89.767 349.166 89.7653C349.081 88.1211 349.003 86.4769 348.923 84.8322C348.923 74.1886 348.923 63.5454 348.923 52.9024C348.603 52.9058 348.363 52.9093 348.123 52.9124C348.123 55.0448 348.123 57.1764 348.123 59.3085C347.803 59.3025 347.564 59.2967 347.293 59.2909C347.031 45.4404 346.764 31.5895 346.502 17.7387C346.324 17.7407 346.123 17.7427 345.963 17.7444C345.963 32.9194 345.963 48.0941 345.963 63.2689C345.723 63.2703 345.483 63.2712 345.243 63.2727C345.243 51.8809 345.243 40.4885 345.243 29.0958C345.003 29.0906 344.763 29.0857 344.523 29.0805C344.523 31.9877 344.523 34.8949 344.523 38.5976C343.803 37.2593 343.553 36.6969 343.264 36.1342C342.988 36.1273 342.683 36.1206 342.443 36.114C342.443 41.92 342.443 47.7262 342.443 53.5328C342.203 53.5083 341.995 53.4841 341.781 53.4595C341.421 50.6121 341.033 47.7649 340.674 44.9175C340.419 44.944 340.202 44.97 339.882 44.9957C339.882 52.0156 339.882 59.0355 339.882 66.0554C339.642 66.0563 339.402 66.0566 339.082 66.0572C339.082 52.857 339.082 39.6563 339.082 26.4556C338.842 26.4625 338.522 26.4691 338.282 26.4754C338.282 28.9201 338.282 31.3647 338.282 33.8096C338.122 33.8001 338.048 33.79 337.934 33.7796C337.526 28.4226 337.115 23.0659 336.707 17.7098C336.534 17.7138 336.36 17.7179 336.187 17.7222C336.187 19.2686 336.187 20.8161 336.186 22.3633C336.185 35.1018 336.214 47.8411 336.15 60.5793C336.141 62.3733 335.678 64.1634 335.426 65.9553C335.416 61.2562 335.406 56.5571 335.396 51.8583C335.047 51.8459 334.699 51.8335 334.349 51.8211C333.906 56.2778 333.471 60.734 333.028 65.1901C332.83 65.174 332.601 65.1577 332.441 65.1416C332.441 60.6332 332.441 56.1252 332.441 51.6166C332.281 51.5819 332.134 51.5473 331.984 51.5129C331.774 52.29 331.56 53.0668 331.349 53.8436C331.164 53.8479 330.977 53.8523 330.792 53.8566C330.257 40.9043 329.721 27.9523 329.186 15C328.976 29.3411 328.984 43.6415 325.784 57.3608C325.697 56.56 325.559 55.4431 325.338 53.4232C324.868 57.901 324.52 61.3927 324.12 64.8848C324.12 51.139 324.12 37.394 324.12 23.6488C323.72 23.6523 323.32 23.6555 322.84 23.6586C322.84 36.2093 322.84 48.7596 322.84 61.3097C322.52 61.3091 322.2 61.3082 321.8 61.307C321.8 53.6682 321.8 46.0293 321.8 38.3901C320.84 47.9077 321.989 57.656 319.092 66.576C318.734 53.5796 318.386 40.2851 318.021 27.0564C317.768 27.0564 317.479 27.0564 317.239 27.0564C317.239 37.4789 317.239 47.9389 317.239 58.3826C316.999 58.3797 316.759 58.3773 316.439 58.3747C316.439 54.6172 316.439 50.8588 316.439 47.1013C316.359 47.1085 316.216 47.116 316.099 47.1232C315.701 52.4854 315.307 57.847 314.908 63.2088C314.317 61.64 314.405 60.0931 314.295 58.5675C314.188 57.0679 313.885 55.5902 313.667 54.1033C313.384 54.1316 313.102 54.1601 312.819 54.1881C312.438 55.7062 312.057 57.2249 311.677 58.743C311.433 58.736 311.189 58.7285 310.946 58.7219C310.748 54.7586 310.55 50.795 310.353 46.8323C309.788 52.5973 309.841 58.3522 309.756 64.1034C309.729 65.9184 309.329 67.7247 309.1 69.5345C308.827 53.3894 308.558 37.2443 308.273 21.0992C308.259 20.314 308.132 19.5323 308.048 18.7492C307.852 18.7665 307.638 18.7832 307.477 18.8008C307.477 32.9466 307.477 47.0926 307.477 61.2386C307.317 61.2378 307.186 61.2372 307.051 61.2363C306.779 49.5568 306.514 37.8771 306.243 26.197C305.959 26.2028 305.637 26.2089 305.397 26.2144C305.397 45.7656 305.397 65.3167 305.397 84.8685C305.317 85.164 305.302 85.4587 305.389 85.7524C305.274 86.2395 305.152 86.726 304.829 88.0972C304.617 86.3532 304.521 85.5928 304.428 84.8328C304.458 80.905 304.505 76.9775 304.513 73.0497C304.524 67.235 304.366 61.4135 304.541 55.6072C304.72 49.6777 300.939 45.073 301.234 39.1528C301.247 38.8809 300.757 38.5679 299.956 37.7152C299.956 47.2761 299.956 56.2074 299.956 65.1381C299.796 65.1352 299.552 65.1324 299.342 65.1301C298.961 53.7285 298.588 42.3269 298.207 30.9253C298.137 30.9296 298.072 30.9331 298.002 30.9374C297.605 40.704 297.212 50.4704 296.815 60.2376C296.58 60.2281 296.356 60.2189 296.116 60.2088C296.116 46.3562 296.116 32.5037 296.116 18.6511C295.956 18.6499 295.808 18.6491 295.656 18.6482C295.257 27.8184 294.856 36.9892 294.42 47.0048C293.969 42.6059 293.604 39.1008 293.245 35.5961C292.963 31.8541 293.876 27.8868 291.555 23.4084C291.555 34.7746 291.555 45.1039 291.555 55.4326C291.315 55.4274 291.075 55.4225 290.915 55.4176C290.915 45.4037 290.915 35.3897 290.915 25.3755C290.755 25.3709 290.63 25.3663 290.494 25.3611C290.101 31.3823 289.702 37.4033 289.309 43.4242C289.189 43.4349 289.066 43.4459 288.946 43.4563C288.77 42.1393 288.592 40.8218 288.417 39.5045C287.817 42.5588 288.639 46.1133 287.623 48.3677C286.102 51.7424 286.497 54.9641 286.438 58.2741C286.322 64.7209 286.452 71.1746 286.389 77.6244C286.373 79.3069 286.025 80.9852 285.829 82.6658C285.774 78.1184 285.804 73.5677 285.642 69.0264C285.483 64.5902 285.141 60.1649 284.872 55.7345C284.615 55.7527 284.354 55.772 284.114 55.7902C284.114 60.4543 284.114 65.1188 284.114 69.783C283.955 69.7908 283.812 69.7988 283.668 69.806C283.248 65.3294 282.827 60.8531 282.407 56.3765C282.229 56.3886 282.034 56.4004 281.874 56.4126C281.874 61.8518 281.874 67.2907 281.874 72.7297C281.714 72.7306 281.594 72.7317 281.457 72.7326C281.079 63.8068 280.709 54.8812 280.331 45.9554C280.069 45.9571 279.793 45.9592 279.553 45.9612C279.553 50.4513 279.553 54.9421 279.553 59.4331C279.393 59.4213 279.229 59.4101 279.071 59.3983C278.949 58.794 278.82 58.1898 278.697 57.5859C278.512 55.7305 278.353 53.8704 278.131 52.0223C277.892 50.031 277.571 48.0506 277.298 46.0654C277.016 46.1009 276.753 46.1364 276.433 46.1724C276.433 51.4596 276.433 56.747 276.433 62.0348C276.353 62.0226 276.251 62.0105 276.151 61.9987C275.772 54.5445 275.402 47.0903 275.023 39.6364C274.359 50.6562 274.408 61.6423 274.337 72.6267C274.327 74.1924 273.792 75.7529 273.552 77.3162C273.552 67.8843 273.552 58.4521 273.552 49.0199C273.393 49.019 273.194 49.0176 273.02 49.0164C272.926 51.2668 272.826 53.5172 272.689 56.8085C272.209 54.9779 272.002 54.2 271.798 53.4223C271.589 53.4322 271.379 53.4416 271.171 53.4514C270.681 61.1238 270.191 68.7956 269.701 76.4676C269.456 76.5008 269.211 76.534 268.966 76.5669C268.397 72.9695 267.829 69.3721 267.209 65.4463C266.946 66.4156 266.734 67.1952 266.346 68.621C265.92 58.809 265.535 49.6507 265.137 40.4917C264.951 40.5001 264.751 40.5087 264.592 40.5171C264.592 46.7784 264.592 53.0397 264.592 59.3013C261.151 59.1881 263.099 55.0797 261.792 53.2356C261.495 53.6574 261.046 53.9925 261.044 54.3327C260.97 64.5007 260.936 74.6696 260.899 84.8382C260.802 86.4016 260.703 87.965 260.606 89.5287C260.465 89.5137 260.323 89.4989 260.181 89.4845C260.106 87.935 260.029 86.386 259.953 84.8368C259.963 71.1496 259.976 57.4632 259.965 43.776C259.965 43.3477 259.73 42.9114 259.576 42.4959C259.53 42.3742 259.391 42.2885 259.28 42.2294C259.17 42.1699 259.041 42.1644 258.539 42.0435C258.539 48.8583 258.589 55.5913 258.506 62.3218C258.483 64.1293 258.057 65.9285 257.816 67.7311C257.799 64.1256 257.934 60.5042 257.703 56.9204C257.588 55.1302 256.798 53.4076 256.318 51.6546C255.985 51.7495 255.631 51.8445 255.31 51.9394C255.31 57.2808 255.31 62.6219 255.31 67.9636C254.91 67.4939 254.838 67.0328 254.739 66.5948C254.66 66.252 254.509 65.9378 254.387 65.6108C254.206 65.6316 254.026 65.6523 253.845 65.6725C253.561 69.2191 253.278 72.7655 252.995 76.3121C252.923 76.2985 252.851 76.2846 252.779 76.2714C252.393 69.6502 252.007 63.0288 251.62 56.408C251.004 63.1393 251.055 69.8493 250.971 76.5565C250.948 78.349 250.511 80.1328 250.264 81.9204C250.036 73.4309 249.809 64.941 249.581 56.4515C249.215 56.4359 248.85 56.4198 248.484 56.4042C248.315 59.5674 248.145 62.7302 247.976 65.8933C245.828 65.4784 246.524 63.3073 246.491 61.7866C246.392 57.2185 246.455 52.6447 246.455 48.0728C246.096 48.0558 245.736 48.0391 245.376 48.0218C245.169 51.8292 244.968 55.6372 244.761 59.4447C244.595 59.4447 244.429 59.4453 244.27 59.4453C244.27 53.7305 244.27 48.0159 244.27 42.3006C244.029 42.2983 243.826 42.2954 243.608 42.2928C243.218 52.6735 242.825 63.0545 242.436 73.4352C242.379 73.4263 242.32 73.417 242.263 73.4075C241.891 63.9452 241.518 54.483 241.146 45.0205C240.783 45.0009 240.418 44.9804 240.054 44.9607C239.217 50.9777 240.109 57.2024 238.909 63.2516C238.909 60.3938 238.909 57.5359 238.909 54.6781C238.749 54.6838 238.597 54.6888 238.441 54.6943C238.18 60.3851 237.936 66.0753 237.675 71.7659C237.334 71.7512 236.989 71.7359 236.669 71.7215C236.669 64.7483 236.669 57.7749 236.669 50.8014C235.628 57.2128 235.747 63.8238 233.626 69.8436C233.34 69.8018 233.068 69.7602 232.748 69.7186C232.748 66.5887 232.748 63.4588 232.748 60.3285C232.348 58.6206 231.658 56.9499 231.442 55.1964C231.035 51.884 230.877 48.5236 230.613 45.1836C229.952 46.5666 229.975 48.9927 229.575 49.1073C226.608 49.9548 227.854 52.6328 227.757 54.7251C227.39 54.8613 226.713 55.1473 226.703 55.1124C226.225 53.5556 225.514 51.9922 225.44 50.3858C225.261 46.4912 225.382 42.5753 225.382 38.6683C224.714 39.2815 224.636 39.8894 224.628 40.4992C224.576 44.5822 225.485 49.18 224.289 52.6381C222.07 59.0566 222.484 65.4858 222.318 72.0089C222.286 73.2762 222.012 74.5349 221.856 75.7976C221.516 75.7659 221.226 75.7338 220.826 75.7018C220.826 69.6555 220.826 63.6094 220.826 57.5628C220.666 57.5688 220.426 57.5746 220.186 57.5807C220.186 66.6669 220.186 75.7532 220.186 84.8389C219.866 84.8406 219.546 84.8426 219.226 84.8446C219.226 81.6604 219.226 78.4756 219.226 74.2273C218.666 75.735 218.505 76.1525 218.124 77.1512C217.627 73.3902 217.207 70.1319 216.776 66.8732C216.575 66.8929 216.346 66.913 216.186 66.9324C216.186 70.0525 216.186 73.172 216.186 76.2924C215.546 72.5109 215.679 68.7517 215.534 65.0083C215.397 61.4813 216.185 57.7639 214.955 54.4068C214.652 54.4317 214.345 54.4568 214.025 54.4816C214.025 58.0276 214.025 61.5736 214.025 65.1199C213.945 65.1194 213.75 65.1191 213.603 65.1185C212.855 58.8662 212.121 52.6138 211.373 46.3611C211.239 46.3692 211.145 46.3772 210.985 46.3856C210.985 52.3111 210.985 58.2359 210.985 64.1616C210.265 61.393 210.421 58.6082 210.265 55.8479C210.116 53.2139 209.674 50.6057 209.281 47.3021C207.681 54.0357 210.662 60.7882 206.865 66.7428C206.608 65.4316 206.429 64.5261 206.276 63.745C203.565 67.8338 204.332 72.6402 204.259 77.2689C204.219 79.7839 204.227 82.2996 204.214 84.8152C203.993 84.8492 203.776 84.829 203.561 84.754C202.877 79.5646 202.185 74.3753 201.501 69.1862C201.198 69.1926 200.904 69.1993 200.584 69.2056C200.584 73.441 200.584 77.6761 200.584 81.9118C200.264 81.9014 199.944 81.8918 199.624 81.8817C199.624 74.0775 199.624 66.2736 199.624 58.4691C199.464 58.4723 199.346 58.4752 199.207 58.4781C198.634 61.5924 198.06 64.7065 197.487 67.8206C197.453 66.8802 197.725 65.5894 197.335 65.0588C195.492 62.5467 196.226 59.5232 195.921 56.6827C195.664 54.283 194.859 51.9827 194.501 49.5901C194.286 48.1513 194.462 46.6205 194.462 45.131C194.175 45.1033 193.888 45.0759 193.602 45.0488C193.39 46.8257 193.022 48.5995 192.995 50.381C192.9 56.6636 192.925 62.9492 192.882 69.2333C192.881 69.4131 192.635 69.59 192.626 69.6029C192.06 68.7309 191.487 67.8451 190.495 66.3146C189.832 70.1319 189.361 72.8399 188.831 75.8899C188.4 71.9638 188 68.4083 187.61 64.853C187.351 64.8764 187.142 64.9007 186.822 64.924C186.822 68.1351 186.822 71.3461 186.822 74.5571C186.582 74.5571 186.342 74.5577 186.102 74.5579C186.102 71.3738 186.102 68.1896 186.102 65.0054C186.022 65.0115 185.872 65.0178 185.747 65.0241C185.422 67.5755 185.108 70.127 184.783 72.6781C184.446 72.6299 184.102 72.582 183.781 72.5341C183.781 69.7319 183.781 66.93 183.781 64.1279C183.622 64.1366 183.473 64.145 183.32 64.1536C183.2 66.0208 183.1 67.8877 182.98 69.755C182.76 69.7411 182.501 69.7273 182.341 69.7134C182.341 66.5656 182.341 63.4184 182.341 60.2703C182.101 60.276 181.989 60.2809 181.823 60.2864C181.713 62.5155 181.592 64.7443 181.482 66.9739C180.867 63.2392 180.575 59.5232 180.067 55.8554C179.97 55.1516 179.001 54.6362 178.435 54.034C178.09 54.7064 177.743 55.3781 177.383 56.0799C176.901 54.8951 176.437 53.7619 175.976 52.6285C175.806 52.6741 175.621 52.7197 175.461 52.765C175.461 57.473 175.461 62.1811 175.461 66.8894C175.301 66.8836 175.172 66.8787 175.025 66.8735C174.913 65.5632 174.803 64.2534 174.691 62.9434C172.589 70.1642 173.581 77.5543 173.448 84.8628C173.366 85.1623 173.369 85.4607 173.454 85.7585C173.381 87.9368 173.306 90.115 173.232 92.293C172.988 89.8074 172.741 87.3212 172.501 84.835C172.501 76.7905 172.501 68.7459 172.501 60.7011C172.101 60.6736 171.743 60.6468 171.364 60.6194C171.221 64.0203 171.079 67.4212 170.937 70.822C170.828 70.8125 170.72 70.8033 170.611 70.7932C170.423 70.0138 170.236 69.2348 169.979 68.1691C169.669 69.2945 169.462 70.0672 169.249 70.8405C169.077 70.8111 168.9 70.7822 168.74 70.7531C168.74 64.1074 168.74 57.4612 168.74 50.8152C168.5 50.7757 168.315 50.737 168.105 50.6975C167.079 54.5534 166.05 58.4097 165.025 62.2656C162.542 55.9714 164.246 48.9472 163.265 42.0161C162.777 44.0143 162.358 45.6885 161.949 47.3627C161.709 47.3166 161.459 47.2698 161.219 47.2239C161.219 42.4316 161.219 37.6393 161.219 32.8467C160.899 32.8231 160.631 32.7994 160.333 32.7758C160.147 34.6975 159.813 36.6193 159.803 38.5425C159.749 48.77 159.779 58.9983 159.779 69.2258C159.779 70.6385 159.779 72.0519 159.779 73.4649C159.539 73.4546 159.219 73.4447 158.899 73.434C158.899 64.3068 158.899 55.1796 158.899 46.0524C158.819 46.0559 158.677 46.0587 158.556 46.0619C158.199 55.2979 157.852 64.5333 157.48 74.1361C153.901 71.7769 156.081 67.7882 154.86 64.9867C154.384 66.7047 153.94 68.2626 153.509 69.8202C153.31 69.7931 153.138 69.766 152.898 69.7388C152.898 64.3686 152.898 58.998 152.898 53.6278C152.738 53.6128 152.572 53.5977 152.406 53.583C151.656 55.4806 150.898 57.3775 149.858 60.0507C149.858 56.7736 149.858 54.2735 149.858 51.7735C146.497 52.2257 148.585 48.145 147.555 47.1627C146.831 47.277 145.986 47.449 145.98 47.406C145.758 46.044 145.513 44.665 145.487 43.2814C145.424 39.8491 145.468 36.4135 145.468 32.9794C145.304 32.9893 145.141 32.9988 144.977 33.0092C144.573 38.0612 144.169 43.1129 143.73 48.5868C143.277 47.6842 143.055 47.2435 142.566 46.2708C142.168 56.6832 141.795 66.4643 141.421 76.2466C141.29 76.2394 141.159 76.2313 141.028 76.2238C140.962 74.3854 140.896 72.5467 140.83 70.7083C140.675 70.7023 140.519 70.6969 140.364 70.6908C140.259 73.2454 140.155 75.7996 140.05 78.3542C139.9 78.3576 139.749 78.3605 139.599 78.3639C139.489 76.1028 139.375 73.8418 139.265 71.581C139.063 71.5801 138.896 71.5789 138.657 71.5781C138.657 74.7274 138.657 77.8763 138.657 81.0256C138.417 81.0218 138.097 81.0178 137.857 81.014C137.857 73.8692 137.857 66.7249 137.857 59.5806C137.696 59.5898 137.552 59.5994 137.409 59.6095C137.003 65.1739 136.589 70.7375 136.183 76.3026C136.089 76.2861 135.99 76.2696 135.896 76.2529C134.453 62.7714 132.996 49.2908 131.553 35.8093C131.392 35.8102 131.216 35.8111 131.056 35.8122C131.056 48.6918 131.056 61.5716 131.056 74.4518C130.496 73.8478 130.394 73.243 130.384 72.6365C130.125 56.3061 129.884 39.9757 129.62 23.6454C129.605 22.6755 129.479 21.708 129.403 20.7396C128.884 24.6812 128.916 28.5903 128.866 32.4979C128.852 33.5499 128.672 35.4775 128.435 35.5103C125.771 35.8834 126.666 38.3806 126.656 40.1122C126.592 50.6542 126.627 61.1968 126.612 71.7391C126.61 72.9285 126.502 74.118 126.443 75.3074C125.867 73.6975 125.916 72.1358 125.852 70.582C125.79 69.0708 125.619 67.5675 125.492 66.0603C125.157 66.1036 124.815 66.1466 124.495 66.1896C124.495 69.5948 124.495 73.0003 124.495 77.2957C120.255 70.7378 123.135 63.6925 121.455 57.5411C121.455 66.6378 121.455 75.7347 121.455 84.8316C121.375 86.7623 121.283 88.693 121.195 90.6237C121.044 90.6231 120.896 90.6232 120.745 90.6232C120.661 88.6933 120.578 86.7632 120.494 84.8336C120.515 79.6541 120.913 74.4374 120.241 69.3259C119.927 69.3352 119.612 69.3447 119.298 69.3542C119.168 70.479 119.029 71.6034 118.899 72.7282C118.687 72.708 118.494 72.6878 118.254 72.6676C118.254 63.7776 118.254 54.887 118.254 45.9967C118.014 45.9944 117.854 45.9921 117.614 45.9895C117.614 48.594 117.614 51.1984 117.614 53.8029C117.454 53.8078 117.326 53.8124 117.189 53.8171C116.812 50.9462 116.447 48.0751 116.07 45.2037C115.808 45.2392 115.534 45.2747 115.294 45.3096C115.294 49.0417 115.294 52.7736 115.294 56.5055C115.134 56.5078 114.993 56.5098 114.852 56.5115C114.45 46.4915 114.037 36.4709 113.634 26.4507C113.418 26.4622 113.214 26.4732 112.974 26.4847C112.974 37.1341 112.974 47.7837 112.974 58.4336C111.614 53.218 113.407 47.5182 111.018 42.5118C110.79 51.1745 110.828 59.8158 110.759 68.4548C110.746 70.1042 110.318 71.7475 110.081 73.3934C109.953 72.1737 109.825 70.9545 109.697 69.7351C107.206 75.0006 107.904 80.4615 107.844 85.8202C107.532 85.4909 107.213 85.162 106.893 84.8328C106.893 74.1863 106.893 63.5404 106.893 52.894C106.733 52.8902 106.484 52.8867 106.271 52.883C105.913 57.2526 105.562 61.6218 105.204 65.9917C105.115 65.9905 105.03 65.9896 104.941 65.9888C104.806 64.095 104.673 62.2004 104.538 60.3069C104.408 60.3193 104.279 60.3317 104.149 60.3441C104.058 62.6075 103.967 64.8704 103.876 67.1335C103.685 67.2512 103.495 67.369 103.304 67.487C103.052 66.6277 102.807 65.7681 102.555 64.9082C102.265 65.1491 101.932 65.3909 101.692 65.6319C101.692 67.9394 101.692 70.2473 101.692 72.5546C101.452 72.5624 101.271 72.5704 101.064 72.5785C100.457 61.3137 99.8438 50.0485 99.2368 38.7837C99.044 38.7944 98.8117 38.8051 98.6519 38.8155C98.6519 46.6298 98.6519 54.4443 98.6519 62.2584C98.4918 62.261 98.3319 62.2636 98.0918 62.2656C98.0918 59.0448 98.0918 55.8234 98.0918 53.1894C96.8116 52.1553 96.0116 51.4584 94.9714 50.6271C94.9714 58.3061 94.9714 65.8431 94.9714 73.3807C94.3314 68.6943 93.7309 64.0079 93.0759 59.0076C92.0054 62.9371 93.6912 67.1852 91.1309 70.52C91.1309 61.7754 91.1309 53.0313 91.1309 44.2867C90.4909 46.5415 91.1182 49.6714 90.1573 50.9058C88.307 53.2826 88.4106 55.7968 88.3304 58.4927C88.3304 62.3946 88.3304 66.2964 88.3304 70.3113C84.2498 69.2321 86.8973 65.1474 85.3729 62.6935C85.2292 65.264 85.0955 67.5326 84.9688 69.8009C84.7037 69.7873 84.4355 69.7738 84.1701 69.7602C83.9188 59.6372 83.6656 49.5142 83.4504 40.8405C82.1288 51.837 80.6401 64.2093 79.1528 76.5816C78.9725 76.559 78.7914 76.5368 78.6108 76.5143C78.4366 74.8024 78.262 73.091 78.0876 71.379C77.7441 71.3721 77.4006 71.3651 77.0571 71.3585C76.9673 76.184 76.8779 81.0092 76.7885 85.8346C76.6118 85.8092 76.4351 85.7839 76.2589 85.7585C76.1773 85.4627 76.0955 85.1672 76.0135 84.8711C75.9502 80.3333 76.6321 75.7142 75.6046 71.284C75.2807 71.2953 74.9693 71.3065 74.6493 71.3181C74.6493 74.9189 74.6493 78.5201 74.6493 82.1206C74.4092 82.1134 74.1692 82.1059 73.9291 82.0987C73.9291 79.4784 73.9291 76.8574 73.9291 73.8928C72.809 74.4056 72.1108 74.7556 71.2678 75.1584C70.9419 73.194 70.6562 71.5166 70.3779 69.8387C70.107 69.869 69.8324 69.8995 69.5617 69.9295C69.4283 72.6803 69.2813 75.4311 69.1044 79.0834C67.8357 74.5285 69.6886 70.2975 66.8884 67.0086C66.8884 69.1661 66.8884 71.3236 66.8884 73.4816C66.7283 73.4724 66.5832 73.4635 66.4249 73.454C66.3413 71.8127 66.2637 70.1714 66.1803 68.5304C65.9568 68.4992 65.7361 68.4678 65.5127 68.4369C64.8994 72.3205 64.2875 76.2041 63.6591 80.1844C62.9163 79.8064 62.2994 79.4922 61.5005 79.0848C61.2302 80.4407 61.0116 81.5384 60.7923 82.6366C60.6232 82.3056 60.4546 81.9747 60.2853 81.6437C59.6139 81.9219 58.9422 82.1992 58.6217 82.3322C57.8841 81.1993 57.342 79.554 56.5624 79.3532C55.2562 79.0161 54.9065 75.5188 52.9815 77.6723C51.9623 73.6972 50.3292 76.4682 49.4826 77.5081C47.0358 80.5137 44.9062 82.5956 42.9665 83.0123C42.2378 82.0583 41.4849 81.0726 40.5593 79.8613C40.1462 80.7702 39.8622 81.3964 39.5777 82.0223C36.907 80.295 36.1573 80.4439 33.1171 81.7256C31.187 82.5396 29.0457 83.3118 27.0753 83.0801C22.6224 82.5566 18.2499 82.8403 13.8489 83.5637C12.6224 83.7648 11.3309 83.7112 10.106 83.4754C7.53851 82.9811 5.04172 81.9885 2.44357 83.6036C1.85796 83.9677 0.799856 83.1967 0 82.9482C0 83.5776 0 84.2072 0 84.8365C0 85.1513 0 85.4659 0 85.7804C0 86.0949 0 86.4097 0 86.7245C3.68044 88.2068 7.29915 88.2417 11.0554 87.0021C12.6897 86.4625 14.528 86.7447 16.2604 86.9066C17.0467 86.9799 18.1504 87.4046 18.4916 88.1283C19.3931 90.0411 20.6028 89.4026 21.7523 89.1359C24.6875 88.4561 27.6026 87.6427 30.5321 86.9202C32.1504 86.5208 33.3783 86.8818 34.1941 89.0768C34.5175 89.9486 36.2734 91.0075 36.5508 90.7224C38.6698 88.5387 41.3234 91.4262 43.4369 89.4092C43.7147 89.1443 44.7712 90.1589 45.0364 90.3196C46.2267 88.9674 47.2378 87.8193 48.7878 86.0579C49.704 89.4127 50.3774 91.8786 51.086 94.4739C51.1933 93.3543 51.3016 92.2304 51.4905 90.2674C51.8835 91.8443 52.0618 92.5574 52.3023 93.5226C53.2987 93.4172 54.68 90.5395 55.393 95.0262C55.6974 92.8756 55.8358 91.8983 55.9738 90.9209C56.1696 90.7657 56.365 90.6107 56.5608 90.4555C56.5991 91.0935 56.6472 91.7315 56.6859 92.3695C56.8831 92.1938 57.0471 92.0171 57.2869 91.8414C57.2869 91.0692 57.2869 90.2965 57.2869 89.524C57.6871 91.5202 58.0822 93.5159 58.6991 96.5757C59.2423 94.1911 59.5674 92.7435 60.1166 90.3312C60.2779 93.2354 60.3809 95.1318 60.47 96.7457C61.9693 94.5634 63.4082 92.467 65.077 90.0379C65.6267 92.8554 66.1218 95.4732 66.6325 98.0912C66.803 98.0557 66.9682 98.0202 67.128 97.9853C67.128 93.9372 67.128 89.8894 67.128 85.8412L67.4595 85.8335L67.7892 85.8687C68.2145 89.9453 66.9679 94.3054 69.4484 98.0947C69.4484 95.5087 69.4484 92.9229 69.4484 90.3375C69.5283 90.3375 69.6428 90.3378 69.7428 90.3383C70.124 94.1848 70.5023 98.0309 70.9168 102.208C71.7261 98.9297 72.4022 96.1862 73.0795 93.4426C73.4416 97.2154 73.8142 100.988 74.1763 104.761C74.3307 104.76 74.4892 104.759 74.649 104.758C74.649 101.554 74.649 98.3509 74.649 95.1477C74.8089 95.1416 74.9557 95.1361 75.1149 95.13C75.5374 98.5912 75.9546 102.053 76.3768 105.515C76.8438 102.586 76.7415 99.6725 76.8721 96.7754C76.9804 94.3695 77.358 91.9822 77.6172 89.5872C78.0323 93.2418 76.41 97.4501 79.5721 100.463C80.0428 98.404 80.4878 96.3717 80.9523 94.3397C81.1516 94.3798 81.3697 94.4199 81.5298 94.4594C81.5298 99.2137 81.5298 103.968 81.5298 108.721C83.8502 105.095 82.1896 100.852 83.3175 96.5786C83.7665 102.703 84.1826 108.355 84.597 114.006C84.8274 113.989 85.0502 113.972 85.2902 113.955C85.2902 110.847 85.2902 107.74 85.2902 104.632C85.5303 104.638 85.7701 104.644 86.0101 104.65C86.0101 108.78 86.0101 112.911 86.0101 117.041C86.2502 117.039 86.4902 117.036 86.7303 117.033C86.7303 112.274 86.7303 107.514 86.7303 102.755C86.8901 102.752 87.1104 102.75 87.3062 102.747C87.3942 104.389 87.4767 106.03 87.5647 107.671C88.192 105.859 88.1042 104.043 88.2107 102.244C88.365 99.6416 88.6504 97.0527 88.8905 94.4583C88.8905 101.324 88.8905 108.189 88.8905 115.054C89.2105 115.059 89.5609 115.063 89.897 115.068C90.0497 105.002 90.2018 94.9368 90.3543 84.8717C90.4503 83.8641 90.5457 82.8568 90.6413 81.8486C90.7805 81.8445 90.9194 81.8408 91.0585 81.8367C91.1322 82.8178 91.2057 83.7989 91.2792 84.7802C91.452 94.5893 90.4775 104.465 92.4709 114.181C92.6976 112.652 92.6972 111.125 92.6974 109.597C92.699 102.37 92.6838 95.1419 92.7177 87.9148C92.7239 86.5502 92.9264 85.1877 93.0386 83.8243C93.1796 84.0138 93.3367 84.1896 93.456 84.3985C93.5249 84.5191 93.5337 84.6943 93.5694 84.8446C93.7638 89.9038 93.9585 94.9627 94.1527 100.023C94.3374 100.021 94.522 100.019 94.7067 100.018C95.1336 96.2239 95.5586 92.4306 95.9855 88.6373C96.2078 88.661 96.411 88.6847 96.6511 88.7083C96.6511 95.2403 96.6511 101.772 96.6511 108.772C97.5311 104.761 98.3125 101.333 99.0034 98.2361C100.193 103.18 101.434 108.336 102.674 113.493C103.604 111.755 103.94 110.105 103.976 108.444C104.062 104.516 103.945 100.579 104.055 96.6525C104.12 94.3591 104.492 92.0789 104.732 89.7927C104.732 100.707 104.732 111.621 104.732 122.535C104.892 122.539 105.116 122.542 105.317 122.546C105.72 114.985 106.105 107.424 106.507 99.8624C106.695 99.8641 106.892 99.8652 107.052 99.8667C107.052 104.896 107.052 109.925 107.052 114.954C107.372 114.953 107.604 114.953 107.876 114.952C108.102 108.111 108.334 101.271 108.56 94.4301C109.179 98.1634 109.801 101.896 110.466 105.914C110.813 98.6553 111.144 91.7271 111.474 84.799C111.565 83.2552 111.655 81.7118 111.746 80.1683C111.89 80.1851 112.042 80.2012 112.187 80.2173C112.259 81.7571 112.333 83.2965 112.413 84.8357C112.413 96.1934 112.413 107.551 112.413 118.908C113.453 112.876 112.795 106.763 114.363 100.669C115.622 95.7729 115.176 90.1892 115.488 84.9107L115.703 84.9263L115.919 84.9193C115.973 89.9445 115.968 94.9728 116.12 99.9933C116.159 101.292 116.477 103.475 117.038 103.683C118.721 104.307 118.29 105.733 118.309 106.996C118.358 110.301 118.326 113.607 118.326 116.913C118.51 116.898 118.693 116.884 118.877 116.87C119.03 116.211 119.181 115.553 119.333 114.895C119.587 114.923 119.854 114.951 120.094 114.979C120.094 123.218 120.094 131.457 120.094 139.695C120.494 139.692 120.894 139.689 121.214 139.686C121.214 128.054 121.214 116.423 121.214 104.791C121.534 104.799 121.854 104.807 122.174 104.816C122.174 114.2 122.174 123.584 122.174 132.968C122.334 132.984 122.513 133 122.688 133.016C123.409 126.978 124.123 120.941 124.83 115.02C125.003 115.377 125.232 115.855 125.868 117.168C126.274 112.442 126.609 108.522 126.945 104.602C127.037 104.601 127.128 104.599 127.219 104.598C127.32 107.163 127.42 109.727 127.522 112.292C129.602 103.207 128.687 93.9877 128.803 84.8313C128.884 82.8937 128.965 80.9563 129.046 79.0184C129.199 79.0219 129.351 79.0245 129.503 79.0279C129.582 80.9716 129.661 82.9162 129.74 84.8602C129.852 93.7104 129.982 102.561 130.095 111.411C130.462 111.41 130.815 111.408 131.215 111.407C131.215 104.415 131.215 97.4068 131.215 90.3917C131.455 90.3917 131.695 90.3917 131.935 90.3917C131.935 98.6094 131.935 106.799 131.935 114.982C132.255 114.992 132.509 115.001 132.796 115.012C133.097 110.281 133.382 105.551 133.683 100.821C133.853 100.824 134.015 100.827 134.175 100.831C134.175 108.059 134.175 115.286 134.175 122.514C134.415 122.518 134.528 122.522 134.696 122.526C134.852 120.979 135.028 119.431 135.183 117.883C135.4 117.902 135.616 117.921 135.856 117.94C135.856 122.273 135.856 126.605 135.856 130.938C135.936 130.92 136.034 130.902 136.13 130.884C136.485 128.081 136.816 125.279 137.172 122.477C137.462 122.505 137.776 122.533 138.016 122.561C138.016 125.373 138.016 128.184 138.016 130.996C138.336 130.989 138.576 130.983 138.816 130.977C138.816 126.871 138.816 122.765 138.816 117.687C139.376 119.223 139.586 119.746 139.822 120.375C140.114 119.582 140.344 118.946 140.617 118.203C140.876 119.021 141.083 119.678 141.291 120.335C141.572 120.311 141.853 120.287 142.134 120.263C142.9 110.521 142.178 100.698 142.53 90.9336C142.754 92.5882 143.153 94.2396 143.17 95.8974C143.242 102.934 143.2 109.974 143.2 117.012C145.825 108.307 144.029 99.2079 145.068 89.3861C146.257 97.2235 144.337 104.447 146.897 111.136C146.897 102.37 146.897 93.6039 146.897 84.8382C146.897 81.0841 146.897 77.3304 146.897 73.5766C147.217 73.5827 147.537 73.5881 147.857 73.5939C147.857 77.3407 147.857 81.0876 147.857 84.8348C147.857 94.8579 147.857 104.882 147.857 114.906C148.097 114.912 148.412 114.918 148.695 114.924C149.008 109.711 149.329 104.497 149.642 99.2824C151.517 103.274 149.617 107.819 152.338 112.527C152.338 107.011 152.338 102.546 152.338 98.0808C152.978 101.835 152.902 105.586 153.083 109.312C153.256 112.884 152.178 116.685 154.498 119.998C154.498 116.431 154.498 112.863 154.498 109.296C156.738 116.663 156.87 124.321 156.827 132.007C157.098 131.992 157.378 131.979 157.618 131.965C157.618 127.256 157.618 122.547 157.618 117.054C158.259 118.629 158.595 119.333 159.183 120.706C159.499 119.358 159.733 118.801 159.746 118.236C160.007 107.11 160.242 95.9833 160.483 84.8561C160.789 85.1626 161.089 85.4684 161.395 85.7752C161.54 95.5658 160.499 105.425 162.819 115.128C162.819 108.172 162.819 101.217 162.819 94.2621C163.059 94.2624 163.299 94.2627 163.539 94.2638C163.539 104.062 163.539 113.861 163.539 123.66C163.859 123.672 164.236 123.685 164.581 123.698C164.926 113.234 165.295 102.772 165.64 92.3089C165.972 92.3193 166.26 92.3303 166.66 92.3415C166.66 100.243 166.66 108.145 166.66 116.047C166.74 116.047 166.88 116.046 166.999 116.046C167.302 114.722 167.597 113.398 167.9 112.075C168.182 112.118 168.42 112.16 168.74 112.203C168.74 116.95 168.74 121.697 168.74 126.444C168.98 126.443 169.3 126.442 169.62 126.442C169.62 119.785 169.62 113.127 169.62 106.469C169.78 106.464 170.018 106.459 170.225 106.454C170.319 108.086 170.416 109.717 170.51 111.349C170.72 111.347 170.9 111.346 171.14 111.344C171.14 108.457 171.14 105.571 171.14 102.685C171.38 102.691 171.62 102.698 171.86 102.705C171.86 113.074 171.86 123.443 171.86 133.812C172.18 133.813 172.5 133.814 172.811 133.815C172.985 124.455 173.151 115.095 173.379 105.738C173.423 103.906 173.781 102.087 174.021 100.261C174.021 106.462 174.021 112.663 174.021 118.863C174.181 118.868 174.415 118.872 174.619 118.877C175.377 113.494 176.13 108.111 176.947 102.31C177.081 105.517 177.212 108.384 177.332 111.249C177.557 111.235 177.781 111.222 178.021 111.207C178.021 104.916 178.021 98.625 178.021 92.334C178.181 92.3369 178.421 92.34 178.661 92.3432C178.661 102.758 178.661 113.172 178.661 123.587C178.821 123.602 179.051 123.617 179.249 123.631C179.841 118.833 180.431 114.035 181.024 109.237C181.199 109.273 181.372 109.309 181.547 109.344C181.628 110.276 181.707 111.207 181.788 112.139C182.038 114.694 182.275 117.249 182.524 119.804C182.76 119.785 182.981 119.765 183.221 119.745C183.221 114.733 183.221 109.72 183.221 104.708C184.581 115.028 182.821 125.531 185.462 135.743C185.462 131.923 185.462 128.103 185.462 123.628C186.102 124.745 186.312 125.177 186.912 126.292C186.912 118.968 186.871 112.413 186.954 105.861C186.974 104.223 187.422 102.593 187.67 100.959C188.054 109.231 186.333 117.881 190.713 126.249C192.021 114.834 193.223 104.131 194.423 93.8815C194.423 100.913 194.423 108.493 194.423 116.072C194.583 116.069 194.684 116.065 194.813 116.062C195.199 112.888 195.586 109.714 195.971 106.54C197.925 107.69 197.333 109.957 197.476 111.906C197.648 114.241 197.848 116.573 198.028 118.907C198.395 118.875 198.743 118.842 199.143 118.81C199.143 111.65 199.143 104.49 199.143 97.3297C199.384 97.3378 199.623 97.3465 199.864 97.3548C199.864 108.24 199.864 119.125 199.864 130.011C200.744 127.308 201.003 124.563 201.258 121.821C201.356 120.773 201.474 119.729 201.588 118.683C201.731 118.874 201.885 119.052 202.008 119.263C202.078 119.383 202.091 119.556 202.131 119.704C202.621 124.181 203.109 128.656 203.599 133.133C203.782 133.112 203.965 133.091 204.148 133.071C204.23 131.724 204.313 130.377 204.396 129.03C204.503 129.03 204.61 129.029 204.718 129.029C204.951 130.29 205.195 131.552 205.428 132.813C205.73 132.799 206.024 132.785 206.344 132.771C206.344 123.748 206.344 114.726 206.344 105.702C206.584 105.705 206.792 105.707 207.022 105.708C207.418 115.439 207.795 125.169 208.19 134.899C208.408 134.894 208.665 134.89 208.824 134.885C208.824 121.977 208.824 109.07 208.824 96.1617C209.865 101.78 209.048 107.571 210.254 113.122C212.146 105.33 209.224 96.8645 213.305 88.6073C213.305 98.0277 213.305 106.586 213.305 115.145C213.545 115.148 213.785 115.151 214.025 115.154C214.025 112.868 214.025 110.581 214.025 108.295C214.185 108.281 214.303 108.268 214.444 108.254C214.892 110.27 215.336 112.286 215.783 114.302C215.928 114.277 216.07 114.251 216.215 114.225C216.311 111.727 216.407 109.228 216.504 106.729C216.84 106.732 217.176 106.735 217.512 106.739C217.946 113.622 218.375 120.505 218.81 127.387C218.977 127.386 219.145 127.384 219.306 127.383C219.306 123.837 219.306 120.29 219.306 116.744C219.705 116.705 220.038 116.666 220.401 116.628C220.639 120.189 220.881 123.751 221.12 127.312C221.254 127.297 221.39 127.28 221.525 127.264C221.906 120.651 222.288 114.037 222.669 107.424C222.718 107.426 222.768 107.428 222.818 107.43C223.108 112.156 223.416 116.883 223.706 121.609C224.074 121.582 224.426 121.555 224.826 121.529C224.826 115.928 224.826 110.327 224.826 104.727C224.986 104.735 225.226 104.743 225.466 104.75C225.466 108.913 225.466 113.076 225.466 117.238C225.786 117.273 226.091 117.307 226.401 117.341C226.849 111.504 227.299 105.668 227.747 99.8311C227.903 99.8384 228.06 99.8459 228.215 99.8537C228.614 106.768 229.024 113.682 229.423 120.597C229.542 120.59 229.626 120.583 229.786 120.577C229.786 108.663 229.786 96.7488 229.786 84.835C229.786 82.6201 229.777 80.4046 229.777 78.1903C230.094 80.4084 230.406 82.6262 230.724 84.8443C230.714 88.9273 230.637 93.0133 230.71 97.0943C230.783 101.16 230.338 105.298 231.107 109.652C232.106 108.672 232.667 108.138 233.787 107.028C233.787 116.267 233.787 124.582 233.787 132.897C234.027 132.895 234.267 132.892 234.507 132.89C234.507 128.209 234.507 123.528 234.507 118.847C234.747 118.836 234.952 118.825 235.167 118.815C235.806 122.957 236.453 127.1 237.092 131.242C238.821 125.133 237.994 118.869 238.144 112.696C238.292 106.557 238.178 100.407 238.178 94.2618C238.432 94.2662 238.688 94.2702 238.942 94.2745C238.942 102.101 238.904 109.928 238.972 117.754C238.987 119.426 239.377 121.093 239.598 122.762C239.904 122.718 240.188 122.673 240.507 122.63C240.507 116.626 240.507 110.622 240.507 104.618C241.867 114.05 241.867 114.05 243.468 116.232C243.468 105.907 243.468 95.8659 243.468 85.8251L243.827 85.7709L244.188 85.8104C244.188 98.3962 244.188 110.983 244.188 123.569C244.588 123.587 245.018 123.606 245.43 123.624C246.107 114.877 245.441 106.002 245.863 97.2304C246.125 97.2402 246.348 97.2498 246.668 97.2599C246.668 101.009 246.668 104.757 246.668 108.506C246.828 108.492 247.068 108.477 247.228 108.463C247.228 107.236 247.228 106.009 247.228 104.782C249.308 104.43 248.606 106.424 248.696 107.593C249.085 112.628 249.406 117.671 249.775 123.143C250.226 120.805 250.594 118.92 250.958 117.035C251.623 121.661 252.29 126.288 252.885 130.43C253.475 126.188 254.122 121.536 254.77 116.883C255.021 115.485 255.43 114.098 255.49 112.687C255.606 109.985 255.542 107.27 255.542 104.56C255.805 104.564 256.03 104.568 256.35 104.572C256.35 107.805 256.35 111.039 256.35 114.272C256.43 114.265 256.566 114.258 256.676 114.25C257.049 111.088 257.39 107.926 257.79 104.765C257.79 114.439 257.79 124.113 257.79 133.788C258.03 133.787 258.351 133.786 258.638 133.786C258.953 124.438 259.261 115.088 259.576 105.74C259.783 105.744 259.95 105.749 260.19 105.753C260.19 113.514 260.19 121.276 260.19 129.038C260.27 129.028 260.427 129.019 260.546 129.01C260.809 124.58 261.072 120.151 261.334 115.722C261.564 115.721 261.794 115.721 262.023 115.721C262.224 116.731 262.424 117.741 262.505 118.15C263.109 115.716 263.781 113.006 264.453 110.296C264.565 108.698 264.678 107.102 264.79 105.506C265.64 113.25 266.27 120.934 266.916 128.616C266.932 128.813 267.126 128.985 267.364 129.382C267.523 127.806 267.657 126.52 267.787 125.234C268 125.252 268.191 125.27 268.431 125.288C268.431 133.506 268.431 141.725 268.431 149.944C269.071 148.087 269.027 146.227 269.079 144.37C269.314 136.08 269.449 127.78 269.873 119.505C270.127 114.54 270.844 109.612 271.355 104.668C271.737 109.406 272.122 114.145 272.504 118.885C272.613 118.896 272.751 118.908 272.832 118.92C272.832 116.034 272.832 113.149 272.832 110.263C273.152 110.258 273.392 110.253 273.712 110.248C273.712 115.283 273.712 120.318 273.712 125.352C273.952 125.34 274.192 125.327 274.432 125.314C274.432 118.136 274.432 110.957 274.432 103.779C275.792 108.677 274.112 114.076 276.512 119.637C276.512 107.452 276.512 96.1585 276.512 84.8645C276.512 82.0471 276.512 79.2305 276.512 76.413C276.832 76.4246 277.152 76.4367 277.472 76.4483C277.472 79.2467 277.472 82.0445 277.472 84.8426C277.472 95.8627 277.472 106.884 277.472 117.904C277.632 117.91 277.77 117.917 277.914 117.924C278.08 116.872 278.251 115.82 278.503 114.221C278.853 115.618 279.044 116.326 279.221 117.034C279.434 116.974 279.633 116.916 279.872 116.857C279.872 111.596 279.872 106.334 279.872 101.074C279.952 101.086 280.047 101.097 280.139 101.108C280.533 108.612 280.921 116.115 281.314 123.618C281.446 123.602 281.576 123.586 281.707 123.57C281.869 122.883 282.032 122.195 282.193 121.508C282.379 121.517 282.593 121.526 282.753 121.536C282.753 126.075 282.753 130.615 282.753 135.154C282.993 135.178 283.165 135.202 283.373 135.226C283.782 134.141 284.178 133.057 284.587 131.973C284.753 132.011 284.913 132.05 285.073 132.088C285.073 137.71 285.073 143.332 285.073 148.954C287.393 132.075 285.786 115.062 287.223 98.1605C287.555 108.522 287.893 118.883 288.226 129.245C291.057 114.561 289.999 99.6647 290.088 84.8382C290.179 83.4823 290.273 82.1255 290.366 80.7685C290.5 80.769 290.646 80.7691 290.781 80.7691C290.874 82.1238 290.993 83.4783 291.074 84.8334C291.074 100.249 291.074 115.664 291.074 131.079C291.313 131.084 291.529 131.089 291.763 131.093C292.027 122.693 292.285 114.293 292.55 105.893C294.19 103.501 292.749 99.5415 295.388 97.4633C295.956 97.0155 295.594 94.7177 295.661 93.2723C296.213 101.161 296.198 109.004 296.221 116.847C296.227 118.884 296.262 120.931 296.435 122.954C297.344 133.652 298.393 144.332 299.195 155.041C299.491 158.995 299.255 163.012 299.255 167C299.511 166.999 299.715 166.998 300.035 166.997C300.035 160.333 300.035 153.669 300.035 147.004C300.115 146.998 300.301 146.99 300.441 146.983C300.658 147.737 300.869 148.491 301.087 149.245C301.252 149.216 301.414 149.188 301.579 149.159C301.898 136.877 302.214 124.594 302.533 112.311C302.741 112.316 302.915 112.321 303.155 112.326C303.155 118.909 303.155 125.492 303.155 132.074C303.235 132.06 303.317 132.045 303.397 132.031C304.372 124.207 305.359 116.384 306.334 108.56C306.524 108.579 306.676 108.598 306.916 108.617C306.916 114.534 306.916 120.449 306.916 126.365C307.156 126.364 307.316 126.363 307.556 126.361C307.556 114.08 307.556 101.798 307.556 89.5168C307.715 89.5189 307.857 89.5206 308.005 89.5221C308.391 101.814 308.777 114.106 309.163 126.397C309.401 126.391 309.636 126.385 309.876 126.379C309.876 120.968 309.876 115.558 309.876 109.609C313.156 113.749 311.846 118.371 312.019 122.584C312.199 126.994 312.052 131.423 312.052 135.844C312.316 135.843 312.596 135.842 312.836 135.841C312.836 129.489 312.836 123.138 312.836 116.787C313.076 116.78 313.218 116.774 313.404 116.767C313.859 122.121 314.324 127.474 314.779 132.827C315.141 132.789 315.477 132.752 315.877 132.715C315.877 125.881 315.877 119.047 315.877 112.212C316.117 112.221 316.437 112.23 316.677 112.239C316.677 122.629 316.677 133.018 316.677 143.407C316.837 143.405 316.916 143.403 317.032 143.401C317.321 138.606 317.614 133.811 317.903 129.016C318.17 129.039 318.44 129.062 318.708 129.085C318.8 130.73 318.892 132.375 318.984 134.02C319.153 134.015 319.322 134.011 319.491 134.006C319.566 132.035 319.649 130.064 319.724 128.092C319.933 128.092 320.117 128.091 320.357 128.09C320.357 130.993 320.357 133.896 320.357 136.8C320.437 136.793 320.558 136.787 320.662 136.78C321.529 127.89 322.398 118.999 323.266 110.109C323.576 110.145 323.878 110.18 324.198 110.216C324.198 112.83 324.198 115.442 324.198 118.056C324.438 118.054 324.678 118.051 324.918 118.049C324.918 110.541 324.918 103.033 324.918 95.5239C325.158 98.7554 325.529 101.983 325.577 105.218C325.679 111.99 325.614 118.766 325.614 125.54C325.798 125.539 325.985 125.538 326.17 125.537C326.577 118.258 326.985 110.979 327.391 103.7C327.512 103.706 327.634 103.713 327.755 103.72C327.855 105.693 327.96 107.665 328.059 109.637C328.29 109.631 328.518 109.625 328.758 109.619C328.758 104.813 328.758 100.007 328.758 95.2005C328.998 95.2068 329.301 95.2134 329.576 95.2195C329.852 101.526 330.126 107.831 330.401 114.137C330.527 114.14 330.652 114.141 330.778 114.143C330.865 112.503 330.952 110.863 331.04 109.222C331.163 109.226 331.287 109.23 331.41 109.233C331.808 118.186 332.207 127.139 332.606 136.092C335.304 125.2 334.419 113.944 334.759 102.827C335.026 102.84 335.319 102.854 335.559 102.867C335.559 118.227 335.559 133.587 335.559 148.946C336.279 144.394 335.707 139.725 336.355 135.33C337.743 125.933 336.308 116.404 338.169 106.915C339.477 100.246 338.37 92.8343 338.342 85.7547C338.432 85.4586 338.436 85.1606 338.355 84.8605C338.444 82.6302 338.551 80.4003 338.639 78.1698C338.834 78.1776 338.999 78.186 339.239 78.1935C339.239 79.584 339.239 80.9745 339.239 82.3651C339.239 96.4918 339.219 110.619 339.234 124.746C339.235 125.984 339.193 128.245 339.445 128.307C342.821 129.133 341.323 132.422 341.395 134.567C341.599 140.646 341.464 146.743 341.464 152.833C341.71 152.839 341.954 152.844 342.2 152.85C342.2 151.206 342.2 149.562 342.2 147.917C342.2 132.533 342.199 117.15 342.202 101.766C342.203 96.7428 342.192 91.7191 342.249 86.6968C342.258 85.9512 342.617 85.2122 342.814 84.4703C342.893 84.5901 342.986 84.7101 343.064 84.8305C342.491 93.8258 343.72 102.525 346.2 111.084C346.2 108.67 346.2 106.255 346.2 103.841C346.28 103.854 346.379 103.866 346.476 103.879C346.855 117.599 347.21 131.32 347.589 145.041C347.827 145.033 348.04 145.026 348.281 145.019C348.281 129.019 348.281 113.019 348.281 97.0195C348.52 97.0178 348.761 97.0169 349 97.0161C349 115.294 349 133.571 349 151.848C349.88 146.265 350.351 140.675 350.452 135.073C350.605 126.581 350.449 118.08 350.524 109.584C350.538 107.944 350.997 106.31 351.251 104.674C351.735 109.813 349.88 115.455 353.641 120.465C353.641 116.852 353.641 113.741 353.641 110.632C353.881 112.304 354.217 113.974 354.238 115.651C354.314 121.467 354.16 127.29 354.303 133.102C354.425 138.09 354.82 143.066 355.102 148.048C355.367 148.034 355.641 148.019 355.881 148.005C355.881 130.132 355.881 112.259 355.881 94.3859C356.121 94.3885 356.361 94.3914 356.521 94.394C356.521 96.1022 356.521 97.8108 356.521 99.5187C356.521 115.084 356.502 130.651 356.564 146.216C356.572 148.426 357.014 150.634 357.253 152.844C357.509 152.813 357.767 152.783 358.024 152.753C358.024 151.201 358.024 149.649 358.025 148.097C358.027 136.148 357.944 124.196 358.099 112.25C358.132 109.727 359.035 107.221 359.536 104.708C359.79 112.251 360.045 119.795 360.299 127.338C360.44 127.318 360.581 127.297 360.722 127.277C361.062 123.937 361.402 120.596 361.742 117.256C362.098 121.577 362.454 125.899 362.81 130.221C362.909 130.247 363.008 130.274 363.107 130.299C363.237 128.92 363.366 127.54 363.495 126.16C363.731 126.163 363.966 126.167 364.201 126.17C364.508 129.703 364.814 133.236 365.12 136.769C365.571 131.741 365.44 126.747 365.607 121.768C365.771 116.868 364.806 111.82 366.57 106.614C368.953 111.019 367.041 115.774 368.373 119.925C368.608 118.23 368.52 116.535 368.628 114.86C368.784 112.435 369.082 110.024 369.32 107.607C369.584 120.153 369.847 132.698 370.111 145.244C370.114 145.401 370.085 145.572 370.125 145.713C370.325 146.421 370.544 147.121 370.755 147.824C371.038 147.771 371.32 147.719 371.603 147.666C371.603 142.212 371.472 136.751 371.644 131.306C371.784 126.854 370.698 122.242 373.103 118.001C373.932 116.538 373.809 114.087 373.84 112.081C373.93 106.264 373.853 100.443 373.903 94.6245C373.912 93.5609 374.221 92.5011 374.385 91.4395C374.721 91.4816 375.084 91.5232 375.404 91.5656C375.404 102.152 375.404 112.739 375.404 123.326C375.644 123.32 375.964 123.315 376.204 123.309C376.204 118.039 376.204 112.769 376.204 107.498C376.364 107.487 376.57 107.476 376.753 107.465C377.404 113.718 378.053 119.971 378.705 126.223C378.886 126.205 379.084 126.186 379.245 126.167C379.245 115.22 379.245 104.272 379.245 93.3252C380.445 103.317 378.925 113.509 381.405 123.394C381.405 114.946 381.405 106.497 381.405 98.0479C381.645 98.0182 381.823 97.9882 382.031 97.9588C383.185 106.98 384.34 116.001 385.494 125.022C385.797 125.008 386.101 124.994 386.404 124.979C386.849 119.467 387.314 113.955 387.76 108.442C387.902 108.439 388.046 108.435 388.206 108.432C388.206 113.8 388.206 119.169 388.206 124.537C388.446 124.539 388.763 124.54 389.051 124.541C389.369 115.693 389.677 106.845 390.023 97.2201C390.467 101.509 390.825 105.01 391.188 108.51C391.267 109.149 391.344 109.787 391.423 110.425C391.555 110.398 391.685 110.371 391.816 110.344C391.929 108.475 392.04 106.606 392.153 104.737C392.285 104.753 392.417 104.769 392.548 104.785C393.12 113.529 393.691 122.274 394.263 131.018C394.458 131.001 394.687 130.985 394.847 130.967C394.847 115.893 394.847 100.818 394.847 85.7428C394.927 85.452 394.988 85.149 394.98 84.835L395.354 84.8195L395.727 84.8478C395.727 100.168 395.727 115.488 395.727 130.808C396.047 130.809 396.471 130.81 396.852 130.81C397.044 118.386 397.226 105.962 397.417 93.5384C397.53 93.5479 397.638 93.5575 397.751 93.5676C398.009 97.4079 398.265 101.248 398.523 105.089C398.77 105.115 399.015 105.141 399.262 105.167C399.729 103.978 400.195 102.791 400.662 101.603C400.878 101.609 401.095 101.614 401.312 101.62C401.545 107.964 401.772 114.308 402.005 120.651C402.181 120.648 402.368 120.645 402.528 120.642C402.528 113.773 402.528 106.905 402.528 100.036C402.768 101.667 403.12 103.287 403.239 104.932C403.636 110.428 403.955 115.933 404.302 121.434C404.413 121.423 404.525 121.413 404.635 121.402C404.938 115.225 405.243 109.048 405.546 102.871C405.937 103.812 406.328 104.753 407.068 106.533C407.068 103.603 406.939 101.594 407.132 99.6341C407.208 98.864 408.006 98.2055 408.475 97.4959C408.881 103.269 409.274 109.042 409.679 114.815C409.94 114.811 410.209 114.808 410.449 114.804C410.449 106.752 410.449 98.7001 410.449 90.6489C410.849 90.652 411.169 90.6549 411.489 90.6584C411.489 100.949 411.489 111.239 411.489 121.529C411.729 121.546 411.94 121.562 412.156 121.579C412.563 117.799 412.98 114.019 413.389 110.222C413.689 110.628 413.97 111.001 414.31 111.46C414.673 105.678 415.026 100.084 415.376 94.4901C417.065 94.0656 416.784 95.657 416.808 96.7884C416.891 100.637 416.916 104.486 416.963 108.336C416.989 108.489 416.995 108.655 417.048 108.792C417.101 108.926 417.204 109.03 417.284 109.148C417.629 107.984 418.239 106.832 418.272 105.655C418.391 101.306 418.32 96.9476 418.32 92.5928C419.67 101.288 418.209 110.135 420.61 118.701C420.61 112.798 420.61 106.894 420.61 100.99C420.85 100.985 421.17 100.98 421.41 100.975C421.41 105.576 421.41 110.178 421.41 114.779C421.49 114.751 421.565 114.724 421.638 114.696C422.315 107.622 422.996 100.548 423.674 93.474C423.886 93.4954 424.101 93.5165 424.313 93.5379C424.691 97.528 425.08 101.518 425.458 105.508C425.572 105.504 425.65 105.501 425.81 105.498C425.81 98.6173 425.81 91.7376 425.81 84.8579C425.81 83.6315 425.884 82.4054 425.925 81.1791C426.192 82.4072 426.455 83.6358 426.722 84.8639C426.657 85.1585 426.656 85.4529 426.723 85.7472C426.693 93.3061 426.097 100.911 427.786 108.688C428.08 107.531 428.288 106.737 428.49 105.942C428.661 105.979 428.851 106.015 429.011 106.051C429.011 109.622 429.011 113.192 429.011 116.763C429.251 116.785 429.525 116.806 429.785 116.828C429.992 114.42 430.247 112.017 430.392 109.604C430.681 104.807 430.906 100.004 431.159 95.2031C431.933 97.2065 432.706 99.2102 433.89 102.275C434.07 98.0678 434.206 94.8612 434.343 91.6536C435.598 97.8846 433.449 104.637 436.904 110.303C437.761 105.281 438.622 100.235 439.664 94.1276C440.243 97.7475 440.652 100.177 441.041 102.607C441.318 102.568 441.572 102.53 441.892 102.492C441.892 98.2736 441.892 94.0546 441.892 89.8365C441.892 89.8533 441.972 89.8695 442.021 89.8865C442.605 96.6828 443.179 103.479 443.762 110.276C444.118 110.271 444.468 110.268 444.823 110.264C445.304 104.668 445.783 99.0726 446.262 93.4974C447.103 93.5866 447.538 93.5326 447.57 93.6509C448.108 95.6284 448.596 97.6272 449.326 100.543C449.789 98.2614 450.093 96.8553 450.533 94.6842C451.07 102.862 451.013 102.862 454.134 102.71C454.134 99.422 454.134 96.1129 454.134 92.8029C454.294 92.7945 454.568 92.785 454.794 92.7757C455.186 94.9636 455.569 97.1517 455.961 99.3392C456.353 100.721 456.741 102.101 457.229 103.82C457.622 100.901 457.939 98.5292 458.287 95.9441C459.178 97.2212 459.843 98.1749 460.509 99.1294C460.573 100.001 460.626 100.873 460.69 101.744C460.882 101.738 461.095 101.732 461.255 101.726C461.255 97.3984 461.255 93.0718 461.255 88.745C461.494 88.7222 461.736 88.6993 461.972 88.6766C462.365 92.1121 462.763 95.5479 463.178 99.1813C463.422 98.6631 463.584 98.2889 463.777 97.9441C463.813 97.8794 463.988 97.9348 464.086 97.9348C464.306 98.9866 464.528 100.049 464.751 101.112C464.936 101.085 465.121 101.059 465.307 101.032C465.741 97.8676 466.175 94.703 466.609 91.539C467.243 94.8909 467.86 98.2424 468.494 101.594C468.673 101.59 468.855 101.587 469.015 101.583C469.015 98.4323 469.015 95.2816 469.015 92.1312C469.336 92.0988 469.55 92.0668 469.809 92.0348C470.67 94.976 471.539 97.9175 472.404 100.872C475.811 98.2906 472.706 92.7596 475.462 89.5884C475.624 92.0296 475.78 94.3469 475.934 96.6643C476.233 96.6482 476.534 96.6317 476.833 96.6156C477.017 94.3395 477.202 92.0636 477.337 90.3807C478.26 93.1751 479.284 96.2727 480.495 99.9391C481.488 97.3196 482.209 95.4177 483.226 92.7339C483.704 94.7041 483.976 95.822 484.459 97.809C484.637 94.9942 484.749 93.2256 484.926 90.4183C485.366 92.2212 485.541 92.9431 485.72 93.6766C486.257 93.2969 486.758 92.9423 487.303 92.5574C487.652 94.0769 487.944 95.3511 488.358 97.1522C489.561 96.0052 490.433 95.1734 491.246 94.3983C491.381 94.8655 491.601 95.6293 491.943 96.8202C493.321 94.9997 494.463 93.4911 495.512 92.1052C496.262 93.5398 496.985 94.924 497.708 96.3076C497.932 96.2586 498.139 96.2099 498.379 96.1617C498.379 93.76 498.379 91.3584 498.379 88.9576C498.539 88.9778 498.686 88.9983 498.84 89.0185C498.984 90.9772 499.129 92.9357 499.298 95.2239C501.725 92.4336 503.217 89.6663 502.858 85.8459L503.148 85.8176L503.438 85.8392C503.956 89.4389 504.474 93.038 504.962 96.4285C507.231 96.4842 508.032 95.4163 508.566 93.2386C508.948 91.681 510.283 90.4907 511.336 88.9218C511.899 91.6189 512.355 93.805 512.883 96.3348C516.414 94.095 518.283 91.1013 518.581 86.6665C519.481 89.7901 520.381 92.9143 521.324 96.187C521.543 95.0294 521.726 94.0564 521.923 93.0132C522.551 93.4908 522.954 93.7978 523.122 93.9254C524.387 91.9225 525.546 90.0873 527.053 87.701C527.741 90.6872 528.282 93.0404 528.945 95.9198C529.872 94.297 530.619 92.9201 531.421 91.5965C532.821 89.2863 534.91 89.4623 535.899 91.9863C536.308 93.0317 536.592 94.155 536.825 94.8952C537.771 93.0617 538.692 91.2776 539.613 89.4935C540.995 89.722 542.377 89.9503 543.973 90.214C544.098 90.7409 544.305 91.6123 544.557 92.6722C545.27 91.3068 545.908 90.0798 546.801 88.3676C548.523 92.364 550.805 90.399 552.924 89.9586C553.897 89.7569 554.978 88.2138 555.673 90.5441C555.766 90.8581 556.721 91.0407 557.175 90.867C558.872 90.2186 560.526 89.3965 562.385 88.5543C562.728 89.3784 563.061 90.1788 563.38 90.9483C566.371 90.6064 569.059 86.8347 572.359 89.7428C572.622 89.9742 573.151 90.0659 573.424 89.8934C576.91 87.6943 580.791 88.7297 584.304 88.7149C592.292 88.6823 600.276 86.6022 608.271 88.3289C608.628 88.4062 609.012 88.2899 609.383 88.2556C612.979 87.9237 616.576 87.598 620.171 87.254C622.247 87.0555 624.321 86.8278 626.396 86.6131C629.336 86.6983 632.277 86.8645 635.217 86.8541C647.121 86.8119 659.025 86.7343 670.929 86.6082C672.018 86.5967 673.103 86.15 674.19 85.905C675.594 86.1771 676.96 86.449 678.4 86.7211C678.4 86.0914 678.4 85.4621 678.4 84.8328C677.043 84.5399 675.753 84.0107 674.425 83.9943Z" fill="#6E6E6E"/>
<path d="M332.11 166.464H345.977V0H369.086V182H309V0H332.11V166.464Z" fill="#FEF000"/>
</svg>
