<svg width="33" height="34" viewBox="0 0 33 34" fill="none" xmlns="http://www.w3.org/2000/svg">
<rect width="32" height="32" fill="#212121"/>
<g filter="url(#filter0_d_148_2735)">
<circle cx="16.3558" cy="16.3556" r="12.9778" stroke="#FFF000" stroke-width="1.06667" shape-rendering="crispEdges"/>
</g>
<path d="M14.125 10.6667L17.123 14.9362L20.876 10.6667H21.9004L17.5781 15.5837L22.2793 22.279H18.8213L15.6553 17.7702L11.6914 22.279H10.667L15.2002 17.1228L10.667 10.6667H14.125ZM12.0605 11.4216L15.7158 16.5368L16.1748 17.1794L19.3037 21.5583H20.877L17.043 16.1921L16.584 15.5495L13.6338 11.4216H12.0605Z" fill="#FFF000"/>
<path d="M14.125 10.6667L17.123 14.9362L20.876 10.6667H21.9004L17.5781 15.5837L22.2793 22.279H18.8213L15.6553 17.7702L11.6914 22.279H10.667L15.2002 17.1228L10.667 10.6667H14.125ZM12.0605 11.4216L15.7158 16.5368L16.1748 17.1794L19.3037 21.5583H20.877L17.043 16.1921L16.584 15.5495L13.6338 11.4216H12.0605Z" stroke="#FFF000"/>
<defs>
<filter id="filter0_d_148_2735" x="0.426949" y="2.03853" width="31.858" height="31.8578" filterUnits="userSpaceOnUse" color-interpolation-filters="sRGB">
<feFlood flood-opacity="0" result="BackgroundImageFix"/>
<feColorMatrix in="SourceAlpha" type="matrix" values="0 0 0 0 0 0 0 0 0 0 0 0 0 0 0 0 0 0 127 0" result="hardAlpha"/>
<feMorphology radius="0.805926" operator="dilate" in="SourceAlpha" result="effect1_dropShadow_148_2735"/>
<feOffset dy="1.61185"/>
<feGaussianBlur stdDeviation="0.805926"/>
<feComposite in2="hardAlpha" operator="out"/>
<feColorMatrix type="matrix" values="0 0 0 0 0 0 0 0 0 0 0 0 0 0 0 0 0 0 0.03 0"/>
<feBlend mode="normal" in2="BackgroundImageFix" result="effect1_dropShadow_148_2735"/>
<feBlend mode="normal" in="SourceGraphic" in2="effect1_dropShadow_148_2735" result="shape"/>
</filter>
</defs>
</svg>
