<svg width="36" height="36" viewBox="0 0 36 36" fill="none" xmlns="http://www.w3.org/2000/svg">
<g filter="url(#filter0_d_148_2565)">
<circle cx="18" cy="16" r="14.5" stroke="#DDDDDD" shape-rendering="crispEdges"/>
</g>
<path d="M14.8809 8.70496L18.5801 13.9735L23.2119 8.70496H24.4766L19.1416 14.7723L24.9434 23.035H20.6758L16.7686 17.4706L11.877 23.035H10.6133L16.208 16.6718L10.6133 8.70496H14.8809ZM12.333 9.6366L16.8428 15.9491L17.4102 16.7421L21.2705 22.1464H23.2129L18.4814 15.5233L17.915 14.7303L14.2744 9.6366H12.333Z" fill="#EAEAEA"/>
<path d="M14.8809 8.70496L18.5801 13.9735L23.2119 8.70496H24.4766L19.1416 14.7723L24.9434 23.035H20.6758L16.7686 17.4706L11.877 23.035H10.6133L16.208 16.6718L10.6133 8.70496H14.8809ZM12.333 9.6366L16.8428 15.9491L17.4102 16.7421L21.2705 22.1464H23.2129L18.4814 15.5233L17.915 14.7303L14.2744 9.6366H12.333Z" stroke="#EAEAEA"/>
<defs>
<filter id="filter0_d_148_2565" x="0" y="0" width="36" height="36" filterUnits="userSpaceOnUse" color-interpolation-filters="sRGB">
<feFlood flood-opacity="0" result="BackgroundImageFix"/>
<feColorMatrix in="SourceAlpha" type="matrix" values="0 0 0 0 0 0 0 0 0 0 0 0 0 0 0 0 0 0 127 0" result="hardAlpha"/>
<feMorphology radius="1" operator="dilate" in="SourceAlpha" result="effect1_dropShadow_148_2565"/>
<feOffset dy="2"/>
<feGaussianBlur stdDeviation="1"/>
<feComposite in2="hardAlpha" operator="out"/>
<feColorMatrix type="matrix" values="0 0 0 0 0 0 0 0 0 0 0 0 0 0 0 0 0 0 0.03 0"/>
<feBlend mode="normal" in2="BackgroundImageFix" result="effect1_dropShadow_148_2565"/>
<feBlend mode="normal" in="SourceGraphic" in2="effect1_dropShadow_148_2565" result="shape"/>
</filter>
</defs>
</svg>
